<svg width="264" height="302" viewBox="0 0 264 302" fill="none" xmlns="http://www.w3.org/2000/svg">
<path d="M1.67325 40.8563L0.877295 37.149C8.05348 32.4667 6.26923 24.6182 6.26923 24.6182L27.3316 15.4435L28.9583 17.898C34.7328 15.4656 41.5781 11.9381 49.0829 6.76174C70.8048 -8.22216 96.4185 5.7078 109.775 43.029C113.062 52.2193 119.819 70.1115 128.131 91.8311L135.223 89.1966L142.967 110.039L136.093 112.596C137.953 117.436 139.851 122.367 141.778 127.366L149.587 124.464L157.331 145.307L149.792 148.109C152.01 153.846 154.23 159.583 156.433 165.266L164.491 162.271L172.235 183.112L164.466 186C180.437 227.121 193.527 260.663 193.527 260.663C193.527 260.663 195.879 269.465 201.404 267.668C206.925 265.87 209.984 264.044 203.378 252.835C196.766 241.633 174.869 208.537 183.378 148.121C183.378 148.121 185.232 141.219 172.025 127.55L263.878 149.703C263.878 149.703 251.42 152.748 243.577 158.118C234.233 164.513 220.034 190.33 239.619 226.684C259.201 263.046 254.654 283.093 227.197 295.316C199.736 307.551 163.586 303.93 154.506 273.339C145.427 242.742 84.1744 32.4739 84.1744 32.4739C84.1744 32.4739 80.3163 8.52923 50.704 19.2849L33.9758 25.466L35.839 28.2827L1.67325 40.8563Z" fill="#F6F6F6"/>
</svg>
