<svg width="265" height="300" viewBox="0 0 265 300" fill="none" xmlns="http://www.w3.org/2000/svg">
<path d="M152.359 202.156C153.057 213.009 144.289 227.509 141.419 243.124C140.98 245.469 135.579 243.642 135.277 246.196C134.975 248.742 139.492 256.956 139.765 259.272C140.038 261.616 132.932 260.789 132.932 260.789L131.831 262.566H128.825L126.897 256.819C126.897 256.819 112.663 255.179 112.109 257.639C111.555 260.099 110.059 258.185 102.528 262.566C94.9974 266.946 67.6148 265.579 57.0703 264.781C52.0857 264.371 44.4111 260.76 39.5416 259.833C34.1255 258.818 31.7231 260.516 30.7881 260.667C29.0043 260.94 24.8613 258.423 23.9406 256.272C23.02 254.136 16.3955 239.686 20.1069 238.212C23.8112 236.737 36.8084 231.767 37.355 229.991C37.9089 228.2 33.5429 217.31 30.3206 216.541C27.091 215.757 21.8116 210.593 19.6969 209.183C17.647 207.816 20.0422 204.731 19.5603 201.645C19.0496 198.394 16.7767 195.747 19.0208 194.935C23.3796 193.324 32.9315 189.814 47.3601 184.649C52.3878 182.858 61.1917 184.39 65.5649 182.736C70.161 181.01 70.2185 176.119 71.0457 174.522C73.7789 169.185 70.909 166.294 72.549 159.993C74.7284 151.65 82.4893 145.069 83.1079 137.337C83.5179 132.274 72.2685 114.407 67.2048 112.494C64.8456 111.602 56.164 111.962 48.5901 111.53C39.9228 111.034 32.3273 109.783 30.7953 109.538C27.911 109.078 12.6481 98.8141 12.6481 98.8141C12.6481 98.8141 13.2019 103.597 11.2815 105.108C9.361 106.611 9.98677 99.1234 8.62015 100.965C7.25354 102.792 7.24634 102.648 6.28252 104.093C5.32589 105.525 7.65633 111.48 6.62777 112.444C5.59921 113.393 5.17484 110.214 5.17484 110.214C5.17484 110.214 4.57785 112.919 3.75069 111.753C2.93072 110.588 2.31934 105.007 2.31934 105.007C2.31934 105.007 0.94553 109.97 0.197488 108.596C-0.557746 107.244 1.09658 103.669 1.09658 103.669C1.09658 103.669 7.52686 91.7079 11.0801 91.6288C14.6476 91.5425 30.6658 100.993 42.9869 101.267C55.3152 101.547 54.7614 98.8069 68.8591 98.2531C66.2626 95.9299 66.2554 93.4413 66.392 90.8592C66.5359 88.2771 62.1555 86.0186 62.0188 77.6969C61.8822 69.3752 73.8581 66.6996 78.1377 66.7355C82.4174 66.7715 85.5031 68.7854 86.6611 71.0295C88.3082 74.1654 90.6315 74.5754 92.5519 74.9925C93.9545 75.2874 91.4586 77.7257 91.4586 77.7257L95.0118 83.0625C95.0118 83.0625 96.0404 85.0476 93.7099 86.0834C91.3867 87.1047 87.6033 87.8383 86.7546 88.0901C85.8987 88.3418 85.4239 90.7369 86.9847 92.5134C87.9989 93.6786 92.4081 99.6988 94.6018 96.8937C95.3139 95.9874 96.659 92.8227 98.1263 88.7949C99.1404 86.0618 101.37 83.2855 102.327 80.1855C104.298 73.8921 104.672 67.4404 104.463 65.3402C104.154 62.4776 100.011 48.1789 95.1413 40.9001C93.4942 38.4402 85.9994 38.318 85.3808 38.3467C83.784 38.4115 79.1087 38.8143 78.9145 37.2319C78.7203 35.628 84.9348 35.9804 85.7188 35.4913C86.5028 35.0022 83.6473 31.4419 83.6473 31.4419C83.6473 31.4419 80.1876 32.0605 79.828 31.0751C79.4756 30.0969 82.4965 29.2698 82.4965 29.2698C82.4965 29.2698 78.6484 25.4362 78.9936 23.861C79.3389 22.2787 84.6399 29.3489 86.7977 29.8884C89.6029 30.5788 95.3427 30.9888 98.3564 34.5419C106.484 44.1439 114.216 60.4133 114.518 63.6356C114.756 66.268 113.763 74.5106 112.799 83.7602C111.807 93.4125 107.743 99.6556 107.872 104.158C107.93 106.222 109.368 107.726 111.023 110.732C113.346 114.976 108.556 117.443 108.153 137.718C107.98 146.493 110.354 160.101 110.354 160.101C110.354 160.101 115 153.046 119.517 153.175C124.034 153.319 125.128 150.859 132.112 146.198C139.103 141.538 137.039 135.021 138.959 131.274C140.873 127.527 145.67 116.752 149.36 118.946C153.064 121.132 163.465 134.014 164.831 148.795C166.198 163.59 158.962 162.885 159.638 171.034C160.307 179.19 151.683 191.288 152.359 202.156Z" fill="#F6F6F6"/>
<path d="M203.34 176.798C198.839 169.11 203.103 144.176 203.804 136.096C204.524 128.016 211.584 103.866 207.931 100.559C203.904 96.9061 195.642 85.0907 195.56 79.9893C195.451 74.8969 204.752 47.7681 205.881 41.6646C207.011 35.5702 202.228 19.537 202.228 19.537C202.228 19.537 203.494 19.8468 204.478 20.1018C205.471 20.3569 210.946 18.0977 212.358 17.6604C213.77 17.2232 213.297 15.5105 212.358 15.5925C211.411 15.6927 206.738 15.2828 205.198 15.2008C203.658 15.1188 204.852 12.0306 205.699 11.8393C206.555 11.648 215.273 12.2219 215.364 11.0923C215.465 9.9718 206.446 7.99499 206.446 7.99499C206.446 7.99499 213.196 6.59209 213.105 5.09809C213.005 3.59498 203.54 5.74488 203.54 5.74488C203.54 5.74488 207.184 1.71838 206.446 0.497671C205.708 -0.723034 195.952 7.43929 195.059 13.2604C194.175 19.0815 193.346 38.0298 193.346 38.0298C193.346 38.0298 192.572 48.1325 190.978 50.9474C188.354 48.8795 186.104 44.3793 177.851 44.7528C169.597 45.1354 164.723 51.6033 165.662 60.5035C161.899 63.3275 167.912 71.1984 167.912 71.1984C167.912 71.1984 169.697 76.8191 166.035 80.7636C162.382 84.7081 129.651 107.583 127.774 110.398C125.898 113.212 122.117 138.957 121.589 142.473C121.051 145.989 116.314 156.019 115.385 158.042C114.465 160.046 116.888 159.727 116.888 159.727C116.888 159.727 114.711 162.523 113.518 164.054C112.315 165.584 112.388 172.298 112.388 172.298C112.388 172.298 83.1184 201.367 82.672 208.737C82.4351 212.736 102.631 235.711 125.132 252.008C144.145 265.801 166.017 273.571 166.017 273.571C166.017 273.571 161.89 276.022 162.072 278.071C162.264 280.13 161.508 290.26 161.508 290.26L168.058 292.92L169.77 288.575C169.77 288.575 175.017 299.261 178.015 299.343C181.021 299.416 186.641 299.343 190.012 299.343C193.383 299.343 193.392 294.578 190.768 293.075C188.145 291.581 185.703 292.319 184.956 290.834C184.2 289.331 183.453 276.004 183.453 276.004C183.453 276.004 208.76 277.334 234.65 264.562C260.531 251.826 264.083 230.054 264.083 230.054C264.083 230.054 207.84 184.487 203.34 176.798ZM145.966 173.555C142.213 174.056 128.813 161.603 129.314 159.044C129.496 158.151 128.749 148.558 129.305 145.415C131.509 132.844 137.695 116.528 137.695 116.528C137.695 116.528 157.445 103.292 163.831 103.529C167.128 103.656 168.905 108.248 171.583 112.411C174.079 116.292 177.486 117.658 177.477 122.532C177.468 138.556 149.72 173.045 145.966 173.555Z" fill="#F6F6F6"/>
</svg>
