<svg width="300" height="313" viewBox="0 0 300 313" fill="none" xmlns="http://www.w3.org/2000/svg">
<path d="M184.798 223.282C185.721 217.174 190.802 202.231 193.769 192.419C192.727 192.439 191.665 192.351 190.643 192.067C188.44 191.491 186.524 190.298 185.085 188.666C182.862 189.008 180.63 188.696 178.615 187.767C176.551 186.829 174.894 185.324 173.762 183.467C171.529 183.428 169.406 182.754 167.56 181.474C166.786 180.946 166.141 180.291 165.555 179.617C166.289 191.071 166.786 201.381 166.944 204.518C167.351 212.307 162.627 230.446 164.255 237.98C165.892 245.525 177.93 266.429 178.337 269.957C178.744 273.476 174.983 275.02 173.067 276.984C171.142 278.958 171.758 281.958 173.296 283.718C174.844 285.486 179.081 287.089 180.63 290.451C182.178 293.813 179.816 306.84 179.637 310.202C179.468 313.554 183.964 312.606 185.512 310.202C187.05 307.798 193.908 296.559 194.315 289.728C194.722 282.916 191.586 273.769 190.891 269.742C190.196 265.716 183.825 229.781 184.798 223.282Z" fill="#F7F7F7"/>
<path d="M138.68 104.59C133.599 103.163 128.547 101.736 124.161 100.505C107.945 95.9607 47.5078 84.243 42.0198 83.168C36.5318 82.093 33.118 79.8647 31.0141 78.7018C28.9102 77.5388 14.3119 61.2474 7.78194 60.7685C1.27178 60.2896 -1.65581 66.0654 0.944287 69.1927C3.54438 72.3201 17.2296 85.318 22.9458 87.253C28.6522 89.1783 32.592 90.3999 38.596 92.3056C42.8931 93.6836 102.259 115.497 136.755 129.413C136.705 129.149 136.586 128.905 136.556 128.641C136.348 126.393 136.844 124.214 137.916 122.328C136.864 120.461 136.368 118.282 136.556 116.054C136.764 113.806 137.628 111.744 139.017 110.063C138.402 108.314 138.352 106.437 138.68 104.59Z" fill="#F7F7F7"/>
<path d="M298.24 0.577981C295.074 -0.858634 274.889 5.64034 270.612 10.4486C266.334 15.2666 240.601 68.4409 236.632 75.9368C236.88 74.1288 231.62 68.3628 233.238 65.3723C234.855 62.3915 242.745 57.5246 243.231 55.5994C243.718 53.6839 237.852 49.1004 238.587 47.7713C239.321 46.4519 240.661 45.2499 239.807 44.1651C238.954 43.0901 232.97 43.1976 231.253 41.9955C229.546 40.7934 225.715 37.6954 223.195 35.7408C220.674 33.7863 208.041 35.4965 203.138 39.5914C198.236 43.6862 196.628 49.9213 196.052 51.6316C195.487 53.3418 193.244 53.4396 192.877 55.4821C192.52 57.5246 198.137 64.1506 199.972 64.8738C201.808 65.597 210.135 70.4932 212.08 71.6074C214.025 72.7215 211.961 74.1385 210.492 73.2883C209.023 72.4478 136.518 26.613 131.526 23.4465C126.525 20.2997 99.3726 21.6386 95.8198 23.4465C92.2869 25.2643 107.312 34.2749 110.974 33.3269C114.646 32.3497 123.081 28.3916 125.651 29.9455C128.222 31.5092 194.107 83.9994 196.559 87.7326C199.01 91.4659 200.806 106.203 198.772 109.399C198.266 110.191 197.402 110.621 196.36 110.855C183.082 99.4406 164.365 83.4228 162.509 82.1523C159.651 80.1586 155.662 80.8525 153.637 83.6671C152.188 85.6999 152.188 88.2604 153.33 90.2834C150.997 90.3322 148.735 91.6125 147.693 93.8309C146.631 96.0689 147.077 98.5903 148.556 100.398C146.244 100.838 144.249 102.499 143.614 104.874C142.969 107.269 143.842 109.653 145.609 111.188C143.415 112.028 141.748 113.992 141.53 116.445C141.321 118.898 142.602 121.117 144.626 122.319C142.612 123.521 141.321 125.749 141.53 128.192C141.748 130.655 143.415 132.6 145.609 133.45C143.832 134.975 142.949 137.369 143.604 139.754C144.239 142.158 146.234 143.79 148.556 144.24C147.077 146.047 146.631 148.569 147.693 150.778C148.745 153.025 150.997 154.306 153.33 154.364C152.198 156.397 152.228 158.948 153.637 160.961C155.086 162.974 157.498 163.854 159.82 163.502C159.076 165.701 159.532 168.193 161.299 169.932C163.065 171.682 165.615 172.122 167.829 171.379C167.481 173.646 168.374 176.06 170.429 177.477C172.493 178.894 175.063 178.894 177.127 177.79C177.187 180.086 178.497 182.315 180.75 183.341C183.022 184.387 185.573 183.947 187.409 182.5C187.865 184.768 189.522 186.722 191.964 187.358C194.375 188.003 196.807 187.133 198.355 185.383C199.208 187.553 201.203 189.185 203.714 189.39C206.205 189.595 208.448 188.335 209.668 186.351C210.889 188.335 213.132 189.595 215.642 189.39C218.133 189.175 220.108 187.543 220.952 185.383C222.52 187.133 224.941 188.003 227.373 187.358C229.794 186.712 231.442 184.758 231.908 182.5C233.744 183.937 236.294 184.377 238.587 183.341C240.84 182.305 242.14 180.086 242.189 177.77C244.253 178.884 246.834 178.884 248.898 177.467C251.766 175.483 252.471 171.564 250.466 168.721C249.116 166.854 231.66 147.113 220.039 133.988C233.188 123.521 246.963 112.937 248.173 109.878C250.535 103.936 247.052 94.9548 246.715 90.3811C246.367 85.8074 276.675 18.3451 278.253 14.5434C279.841 10.7222 290.47 15.1494 295.372 12.8527C300.195 10.5659 301.416 2.02437 298.24 0.577981Z" fill="#F7F7F7"/>
</svg>
