<svg width="359" height="257" viewBox="0 0 359 257" fill="none" xmlns="http://www.w3.org/2000/svg">
<path fill-rule="evenodd" clip-rule="evenodd" d="M179.421 48.004C170.563 35.9474 141.775 12.2773 97.4859 14.0488C53.1966 15.8204 17.5191 5.92914 5.21654 0.762056C2.75602 0.516004 -1.27923 2.23837 2.26392 11.0962C2.58425 11.8971 3.03973 13.1304 3.63203 14.7342C11.2289 35.3045 41.3343 116.822 97.4859 128.463C132.18 135.655 166.873 120.343 179.421 112.223L179.801 111.95L180.181 112.21C192.729 120.33 227.422 135.642 262.116 128.45C318.268 116.809 348.373 35.2917 355.97 14.7212C356.562 13.1174 357.018 11.884 357.338 11.0832C360.881 2.2253 356.846 0.502939 354.386 0.74899C342.083 5.91607 306.406 15.8073 262.116 14.0358C217.827 12.2642 189.039 35.9344 180.181 47.9909L179.801 48.5379L179.421 48.004ZM74.985 63.1188C114.55 35.9547 141.665 62.6267 150.277 79.3582C148.839 79.9332 147.321 80.5709 145.732 81.2385C126.918 89.1414 98.1273 101.235 74.985 63.1188ZM284.621 63.1188C245.056 35.9547 217.941 62.6267 209.329 79.3582C210.767 79.9332 212.285 80.5709 213.874 81.2385C232.688 89.1414 261.479 101.235 284.621 63.1188Z" fill="#F6F6F6"/>
<path d="M321.541 43.0366V252.023" stroke="#F6F6F6" stroke-width="9" stroke-linecap="round"/>
</svg>
