<svg width="156" height="116" viewBox="0 0 156 116" fill="none" xmlns="http://www.w3.org/2000/svg">
<path d="M89.459 87.6016L90.2697 88.1871L90.2712 88.1849L89.459 87.6016ZM52.2871 87.2266L51.4693 87.8021L51.4707 87.8041L52.2871 87.2266ZM89.2715 34.4922L88.4522 35.0657L88.4557 35.0706L89.2715 34.4922ZM75.6777 76.7734L74.7261 76.4661L74.7233 76.4752L75.6777 76.7734ZM75.6777 44.9922L74.7243 45.2938L74.7252 45.2966L75.6777 44.9922ZM94.5527 60.9297C94.5527 72.9832 92.5259 81.6173 88.6468 87.0182L90.2712 88.1849C94.5171 82.2733 96.5527 73.1262 96.5527 60.9297H94.5527ZM88.6483 87.0161C84.8138 92.3253 78.9317 95.0391 70.8027 95.0391V97.0391C79.4237 97.0391 85.9791 94.1278 90.2697 88.187L88.6483 87.0161ZM70.8027 95.0391C62.8882 95.0391 57.0443 92.2196 53.1035 86.649L51.4707 87.8041C55.8424 93.9836 62.3423 97.0391 70.8027 97.0391V95.0391ZM53.1049 86.6511C49.1197 80.9878 47.0527 72.4639 47.0527 60.9297H45.0527C45.0527 72.6455 47.1421 81.6528 51.4693 87.8021L53.1049 86.6511ZM47.0527 60.9297C47.0527 48.8131 49.0798 40.1311 52.9602 34.6984L51.3328 33.5359C47.0882 39.4783 45.0527 48.6713 45.0527 60.9297H47.0527ZM52.9602 34.6984C56.7964 29.3277 62.678 26.5859 70.8027 26.5859V24.5859C62.1774 24.5859 55.6215 27.5316 51.3328 33.5359L52.9602 34.6984ZM70.8027 26.5859C78.6802 26.5859 84.5088 29.4322 88.4523 35.0657L90.0907 33.9187C85.7217 27.6772 79.2378 24.5859 70.8027 24.5859V26.5859ZM88.4557 35.0706C92.4698 40.7322 94.5527 49.3008 94.5527 60.9297H96.5527C96.5527 49.1211 94.4482 40.0647 90.0873 33.9138L88.4557 35.0706ZM63.4746 60.9297C63.4746 68.6719 63.9528 74.1516 64.9791 77.2303L66.8764 76.5978C65.9651 73.864 65.4746 68.6875 65.4746 60.9297H63.4746ZM64.9791 77.2303C65.4973 78.7851 66.222 80.0487 67.2065 80.929C68.2114 81.8277 69.4287 82.2734 70.8027 82.2734V80.2734C69.8955 80.2734 69.1597 79.9926 68.5396 79.4382C67.8991 78.8653 67.3269 77.9492 66.8764 76.5978L64.9791 77.2303ZM70.8027 82.2734C72.1977 82.2734 73.4278 81.8121 74.4341 80.8832C75.4184 79.9747 76.132 78.6724 76.6322 77.0717L74.7233 76.4752C74.286 77.8745 73.7183 78.8222 73.0776 79.4136C72.4589 79.9847 71.7202 80.2734 70.8027 80.2734V82.2734ZM76.6293 77.0807C77.6515 73.9155 78.1309 68.4913 78.1309 60.9297H76.1309C76.1309 68.4931 75.6415 73.6314 74.7261 76.4661L76.6293 77.0807ZM78.1309 60.9297C78.1309 53.3362 77.6513 47.8826 76.6303 44.6878L74.7252 45.2966C75.6417 48.1643 76.1309 53.3357 76.1309 60.9297H78.1309ZM76.6312 44.6906C76.1165 43.0637 75.3974 41.7418 74.4182 40.8191C73.4158 39.8745 72.1922 39.3984 70.8027 39.3984V41.3984C71.6946 41.3984 72.4241 41.688 73.0466 42.2747C73.6924 42.8832 74.2702 43.8582 74.7243 45.2938L76.6312 44.6906ZM70.8027 39.3984C69.4256 39.3984 68.207 39.8502 67.2025 40.7581C66.2191 41.647 65.4956 42.9223 64.978 44.4915L66.8774 45.1179C67.3287 43.7496 67.902 42.8218 68.5436 42.2419C69.1641 41.6811 69.8986 41.3984 70.8027 41.3984V39.3984ZM64.978 44.4915C63.953 47.5998 63.4746 53.1247 63.4746 60.9297H65.4746C65.4746 53.1097 65.965 47.8846 66.8774 45.1179L64.978 44.4915ZM140.693 52.9609L140.189 53.8245L140.199 53.8302L140.693 52.9609ZM148.1 60.6953L147.214 61.159L147.217 61.1655L148.1 60.6953ZM143.834 89.8984L143.171 89.1496L143.169 89.1519L143.834 89.8984ZM103.334 92.3359H102.334V92.9609L102.896 93.2348L103.334 92.3359ZM103.334 77.1484L103.752 76.2399L102.334 75.588V77.1484H103.334ZM112.521 80.2422L112.289 81.2149L112.291 81.2154L112.521 80.2422ZM129.303 79.3047L129.918 80.0934L129.926 80.0868L129.303 79.3047ZM111.303 66.1328L110.858 67.0285L111.223 67.2098L111.611 67.0841L111.303 66.1328ZM104.506 62.7578L103.508 62.6867L103.461 63.3554L104.061 63.6535L104.506 62.7578ZM107.084 26.5703V25.5703H106.153L106.087 26.4992L107.084 26.5703ZM146.178 26.5703H147.178V25.5703H146.178V26.5703ZM146.178 41.9922V42.9922H147.178V41.9922H146.178ZM122.834 41.9922V40.9922H121.923L121.838 41.8993L122.834 41.9922ZM121.99 51.0391L120.995 50.9462L120.871 52.2727L122.179 52.0211L121.99 51.0391ZM127.193 50.2891L127.224 51.2886L127.239 51.2881L127.254 51.2872L127.193 50.2891ZM130.053 51.1953C133.827 51.1953 137.198 52.0769 140.189 53.8244L141.198 52.0975C137.877 50.1574 134.153 49.1953 130.053 49.1953V51.1953ZM140.199 53.8302C143.215 55.545 145.55 57.98 147.214 61.159L148.986 60.2316C147.149 56.7231 144.547 54.0019 141.188 52.0916L140.199 53.8302ZM147.217 61.1655C148.91 64.3435 149.771 68.0369 149.771 72.2734H151.771C151.771 67.76 150.852 63.7346 148.982 60.2252L147.217 61.1655ZM149.771 72.2734C149.771 79.7174 147.532 85.2898 143.171 89.1496L144.497 90.6472C149.386 86.3195 151.771 80.1419 151.771 72.2734H149.771ZM143.169 89.1519C138.833 93.0158 132.149 95.0391 122.928 95.0391V97.0391C132.394 97.0391 139.648 94.9686 144.499 90.645L143.169 89.1519ZM122.928 95.0391C115.02 95.0391 108.653 93.8173 103.772 91.4371L102.896 93.2348C108.14 95.792 114.835 97.0391 122.928 97.0391V95.0391ZM104.334 92.3359V77.1484H102.334V92.3359H104.334ZM102.916 78.057C105.704 79.3386 108.83 80.3897 112.289 81.2149L112.754 79.2695C109.401 78.4697 106.402 77.4583 103.752 76.2399L102.916 78.057ZM112.291 81.2154C115.775 82.0387 118.809 82.4609 121.381 82.4609V80.4609C119.015 80.4609 116.143 80.0706 112.752 79.269L112.291 81.2154ZM121.381 82.4609C124.94 82.4609 127.832 81.719 129.918 80.0933L128.688 78.5161C127.086 79.7653 124.696 80.4609 121.381 80.4609V82.4609ZM129.926 80.0868C132.057 78.3888 133.068 75.9144 133.068 72.8359H131.068C131.068 75.4449 130.236 77.2831 128.68 78.5225L129.926 80.0868ZM133.068 72.8359C133.068 69.9395 132.016 67.5875 129.873 65.9081L128.639 67.4825C130.245 68.7406 131.068 70.4824 131.068 72.8359H133.068ZM129.873 65.9081C127.743 64.2403 124.636 63.4922 120.725 63.4922V65.4922C124.439 65.4922 127.018 66.2128 128.639 67.4825L129.873 65.9081ZM120.725 63.4922C117.694 63.4922 114.448 64.0624 110.994 65.1815L111.611 67.0841C114.908 66.0158 117.943 65.4922 120.725 65.4922V63.4922ZM111.747 65.2372L104.951 61.8622L104.061 63.6535L110.858 67.0285L111.747 65.2372ZM105.503 62.8289L108.081 26.6414L106.087 26.4992L103.508 62.6867L105.503 62.8289ZM107.084 27.5703H146.178V25.5703H107.084V27.5703ZM145.178 26.5703V41.9922H147.178V26.5703H145.178ZM146.178 40.9922H122.834V42.9922H146.178V40.9922ZM121.838 41.8993L120.995 50.9462L122.986 51.1319L123.83 42.085L121.838 41.8993ZM122.179 52.0211C124.617 51.5523 126.281 51.3172 127.224 51.2886L127.163 49.2895C126.044 49.3234 124.239 49.5883 121.801 50.0571L122.179 52.0211ZM127.254 51.2872C128.268 51.2257 129.201 51.1953 130.053 51.1953V49.1953C129.154 49.1953 128.181 49.2274 127.133 49.2909L127.254 51.2872Z" fill="#D93030"/>
<g opacity="0.6" filter="url(#filter0_f_1975_5204)">
<circle cx="20.2975" cy="58.025" r="10.3131" fill="url(#paint0_linear_1975_5204)"/>
</g>
<circle cx="20" cy="55.8384" r="12.5" fill="url(#paint1_linear_1975_5204)"/>
<path d="M26.4959 52.5013L18.8496 60.8252L13.8254 56.0593" stroke="#FCFCFC" stroke-width="2" stroke-linecap="round"/>
<defs>
<filter id="filter0_f_1975_5204" x="0.984375" y="38.7119" width="38.626" height="38.626" filterUnits="userSpaceOnUse" color-interpolation-filters="sRGB">
<feFlood flood-opacity="0" result="BackgroundImageFix"/>
<feBlend mode="normal" in="SourceGraphic" in2="BackgroundImageFix" result="shape"/>
<feGaussianBlur stdDeviation="4.5" result="effect1_foregroundBlur_1975_5204"/>
</filter>
<linearGradient id="paint0_linear_1975_5204" x1="20.2975" y1="47.7119" x2="20.2975" y2="68.3381" gradientUnits="userSpaceOnUse">
<stop stop-color="#C63B3B"/>
<stop offset="1" stop-color="#D93030"/>
</linearGradient>
<linearGradient id="paint1_linear_1975_5204" x1="20" y1="43.3384" x2="20" y2="68.3384" gradientUnits="userSpaceOnUse">
<stop stop-color="#C63B3B"/>
<stop offset="1" stop-color="#D93030"/>
</linearGradient>
</defs>
</svg>
