<svg width="157" height="115" viewBox="0 0 157 115" fill="none" xmlns="http://www.w3.org/2000/svg">
<path d="M90.2812 87.5L91.0919 88.0855L91.0935 88.0834L90.2812 87.5ZM53.1094 87.125L52.2916 87.7005L52.293 87.7025L53.1094 87.125ZM90.0938 34.3906L89.2745 34.9641L89.278 34.969L90.0938 34.3906ZM76.5 76.6719L75.5483 76.3646L75.5455 76.3736L76.5 76.6719ZM76.5 44.8906L75.5466 45.1922L75.5475 45.195L76.5 44.8906ZM95.375 60.8281C95.375 72.8816 93.3481 81.5157 89.469 86.9166L91.0935 88.0834C95.3394 82.1718 97.375 73.0246 97.375 60.8281H95.375ZM89.4706 86.9145C85.6361 92.2238 79.754 94.9375 71.625 94.9375V96.9375C80.246 96.9375 86.8014 94.0262 91.0919 88.0855L89.4706 86.9145ZM71.625 94.9375C63.7104 94.9375 57.8666 92.118 53.9257 86.5475L52.293 87.7025C56.6647 93.882 63.1646 96.9375 71.625 96.9375V94.9375ZM53.9272 86.5495C49.9419 80.8863 47.875 72.3623 47.875 60.8281H45.875C45.875 72.544 47.9643 81.5512 52.2916 87.7005L53.9272 86.5495ZM47.875 60.8281C47.875 48.7115 49.902 40.0295 53.7825 34.5969L52.155 33.4344C47.9105 39.3767 45.875 48.5698 45.875 60.8281H47.875ZM53.7825 34.5969C57.6187 29.2262 63.5003 26.4844 71.625 26.4844V24.4844C62.9997 24.4844 56.4438 27.4301 52.155 33.4344L53.7825 34.5969ZM71.625 26.4844C79.5024 26.4844 85.3311 29.3306 89.2745 34.9641L90.913 33.8172C86.5439 27.5756 80.0601 24.4844 71.625 24.4844V26.4844ZM89.278 34.969C93.2921 40.6307 95.375 49.1992 95.375 60.8281H97.375C97.375 49.0195 95.2704 39.9631 90.9095 33.8122L89.278 34.969ZM64.2969 60.8281C64.2969 68.5703 64.7751 74.0501 65.8013 77.1287L67.6987 76.4963C66.7874 73.7624 66.2969 68.5859 66.2969 60.8281H64.2969ZM65.8013 77.1287C66.3196 78.6836 67.0443 79.9472 68.0287 80.8275C69.0337 81.7261 70.251 82.1719 71.625 82.1719V80.1719C70.7178 80.1719 69.9819 79.8911 69.3619 79.3366C68.7213 78.7638 68.1492 77.8477 67.6987 76.4963L65.8013 77.1287ZM71.625 82.1719C73.02 82.1719 74.2501 81.7106 75.2564 80.7817C76.2406 79.8732 76.9543 78.5708 77.4545 76.9701L75.5455 76.3736C75.1082 77.7729 74.5406 78.7206 73.8998 79.3121C73.2811 79.8832 72.5425 80.1719 71.625 80.1719V82.1719ZM77.4516 76.9792C78.4737 73.8139 78.9531 68.3897 78.9531 60.8281H76.9531C76.9531 68.3915 76.4638 73.5299 75.5484 76.3646L77.4516 76.9792ZM78.9531 60.8281C78.9531 53.2346 78.4736 47.781 77.4525 44.5862L75.5475 45.195C76.4639 48.0627 76.9531 53.2342 76.9531 60.8281H78.9531ZM77.4534 44.589C76.9388 42.9621 76.2197 41.6402 75.2405 40.7175C74.238 39.7729 73.0144 39.2969 71.625 39.2969V41.2969C72.5168 41.2969 73.2464 41.5865 73.8689 42.1731C74.5147 42.7816 75.0925 43.7567 75.5466 45.1922L77.4534 44.589ZM71.625 39.2969C70.2479 39.2969 69.0293 39.7486 68.0248 40.6566C67.0414 41.5454 66.3178 42.8207 65.8003 44.3899L67.6997 45.0163C68.1509 43.648 68.7243 42.7202 69.3659 42.1403C69.9863 41.5795 70.7209 41.2969 71.625 41.2969V39.2969ZM65.8003 44.3899C64.7752 47.4982 64.2969 53.0231 64.2969 60.8281H66.2969C66.2969 53.0081 66.7873 47.783 67.6997 45.0163L65.8003 44.3899ZM143.906 95V96H144.906V95H143.906ZM125.109 95H124.109V96H125.109V95ZM125.391 46.625L126.389 46.6762L126.545 43.6469L124.618 45.9899L125.391 46.625ZM121.078 51.0312L121.715 51.8025L121.729 51.7905L121.743 51.7779L121.078 51.0312ZM113.297 57.4531L112.521 58.0842L113.157 58.8654L113.933 58.2244L113.297 57.4531ZM103.688 45.6406L103.056 44.8654L102.281 45.4965L102.912 46.2717L103.688 45.6406ZM127.219 26.4688V25.4688H126.863L126.587 25.6935L127.219 26.4688ZM143.906 26.4688H144.906V25.4688H143.906V26.4688ZM143.906 94H125.109V96H143.906V94ZM126.109 95V58.7188H124.109V95H126.109ZM126.109 58.7188C126.109 54.3263 126.203 50.3124 126.389 46.6762L124.392 46.5738C124.203 50.2501 124.109 54.2987 124.109 58.7188H126.109ZM124.618 45.9899C123.502 47.3474 122.103 48.7792 120.413 50.2846L121.743 51.7779C123.491 50.2208 124.967 48.7151 126.163 47.2601L124.618 45.9899ZM120.442 50.26L112.66 56.6819L113.933 58.2244L121.715 51.8025L120.442 50.26ZM114.073 56.8221L104.463 45.0096L102.912 46.2717L112.521 58.0842L114.073 56.8221ZM104.319 46.4159L127.85 27.244L126.587 25.6935L103.056 44.8654L104.319 46.4159ZM127.219 27.4688H143.906V25.4688H127.219V27.4688ZM142.906 26.4688V95H144.906V26.4688H142.906Z" fill="#D93030"/>
<g opacity="0.6" filter="url(#filter0_f_1975_5203)">
<circle cx="20.2975" cy="60.6871" r="10.3131" fill="url(#paint0_linear_1975_5203)"/>
</g>
<circle cx="20" cy="58.5" r="12.5" fill="url(#paint1_linear_1975_5203)"/>
<path d="M26.4959 55.163L18.8496 63.4868L13.8254 58.7209" stroke="#FCFCFC" stroke-width="2" stroke-linecap="round"/>
<defs>
<filter id="filter0_f_1975_5203" x="0.984375" y="41.374" width="38.626" height="38.6262" filterUnits="userSpaceOnUse" color-interpolation-filters="sRGB">
<feFlood flood-opacity="0" result="BackgroundImageFix"/>
<feBlend mode="normal" in="SourceGraphic" in2="BackgroundImageFix" result="shape"/>
<feGaussianBlur stdDeviation="4.5" result="effect1_foregroundBlur_1975_5203"/>
</filter>
<linearGradient id="paint0_linear_1975_5203" x1="20.2975" y1="50.374" x2="20.2975" y2="71.0002" gradientUnits="userSpaceOnUse">
<stop stop-color="#C63B3B"/>
<stop offset="1" stop-color="#D93030"/>
</linearGradient>
<linearGradient id="paint1_linear_1975_5203" x1="20" y1="46" x2="20" y2="71" gradientUnits="userSpaceOnUse">
<stop stop-color="#C63B3B"/>
<stop offset="1" stop-color="#D93030"/>
</linearGradient>
</defs>
</svg>
