<svg width="157" height="115" viewBox="0 0 157 115" fill="none" xmlns="http://www.w3.org/2000/svg">
<path d="M90.2812 87.5L91.0919 88.0855L91.0935 88.0834L90.2812 87.5ZM53.1094 87.125L52.2916 87.7005L52.293 87.7025L53.1094 87.125ZM90.0938 34.3906L89.2745 34.9641L89.278 34.969L90.0938 34.3906ZM76.5 76.6719L75.5483 76.3646L75.5455 76.3736L76.5 76.6719ZM76.5 44.8906L75.5466 45.1922L75.5475 45.195L76.5 44.8906ZM95.375 60.8281C95.375 72.8816 93.3481 81.5157 89.469 86.9166L91.0935 88.0834C95.3394 82.1718 97.375 73.0246 97.375 60.8281H95.375ZM89.4706 86.9145C85.6361 92.2238 79.754 94.9375 71.625 94.9375V96.9375C80.246 96.9375 86.8014 94.0262 91.0919 88.0855L89.4706 86.9145ZM71.625 94.9375C63.7104 94.9375 57.8666 92.118 53.9257 86.5475L52.293 87.7025C56.6647 93.882 63.1646 96.9375 71.625 96.9375V94.9375ZM53.9272 86.5495C49.9419 80.8863 47.875 72.3623 47.875 60.8281H45.875C45.875 72.544 47.9643 81.5512 52.2916 87.7005L53.9272 86.5495ZM47.875 60.8281C47.875 48.7115 49.902 40.0295 53.7825 34.5969L52.155 33.4344C47.9105 39.3767 45.875 48.5698 45.875 60.8281H47.875ZM53.7825 34.5969C57.6187 29.2262 63.5003 26.4844 71.625 26.4844V24.4844C62.9997 24.4844 56.4438 27.4301 52.155 33.4344L53.7825 34.5969ZM71.625 26.4844C79.5024 26.4844 85.3311 29.3306 89.2745 34.9641L90.913 33.8172C86.5439 27.5756 80.0601 24.4844 71.625 24.4844V26.4844ZM89.278 34.969C93.2921 40.6307 95.375 49.1992 95.375 60.8281H97.375C97.375 49.0195 95.2704 39.9631 90.9095 33.8122L89.278 34.969ZM64.2969 60.8281C64.2969 68.5703 64.7751 74.0501 65.8013 77.1287L67.6987 76.4963C66.7874 73.7624 66.2969 68.5859 66.2969 60.8281H64.2969ZM65.8013 77.1287C66.3196 78.6836 67.0443 79.9472 68.0287 80.8275C69.0337 81.7261 70.251 82.1719 71.625 82.1719V80.1719C70.7178 80.1719 69.9819 79.8911 69.3619 79.3366C68.7213 78.7638 68.1492 77.8477 67.6987 76.4963L65.8013 77.1287ZM71.625 82.1719C73.02 82.1719 74.2501 81.7106 75.2564 80.7817C76.2406 79.8732 76.9543 78.5708 77.4545 76.9701L75.5455 76.3736C75.1082 77.7729 74.5406 78.7206 73.8998 79.3121C73.2811 79.8832 72.5425 80.1719 71.625 80.1719V82.1719ZM77.4516 76.9792C78.4737 73.8139 78.9531 68.3897 78.9531 60.8281H76.9531C76.9531 68.3915 76.4638 73.5299 75.5484 76.3646L77.4516 76.9792ZM78.9531 60.8281C78.9531 53.2346 78.4736 47.781 77.4525 44.5862L75.5475 45.195C76.4639 48.0627 76.9531 53.2342 76.9531 60.8281H78.9531ZM77.4534 44.589C76.9388 42.9621 76.2197 41.6402 75.2405 40.7175C74.238 39.7729 73.0144 39.2969 71.625 39.2969V41.2969C72.5168 41.2969 73.2464 41.5865 73.8689 42.1731C74.5147 42.7816 75.0925 43.7567 75.5466 45.1922L77.4534 44.589ZM71.625 39.2969C70.2479 39.2969 69.0293 39.7486 68.0248 40.6566C67.0414 41.5454 66.3178 42.8207 65.8003 44.3899L67.6997 45.0163C68.1509 43.648 68.7243 42.7202 69.3659 42.1403C69.9863 41.5795 70.7209 41.2969 71.625 41.2969V39.2969ZM65.8003 44.3899C64.7752 47.4982 64.2969 53.0231 64.2969 60.8281H66.2969C66.2969 53.0081 66.7873 47.783 67.6997 45.0163L65.8003 44.3899ZM154.547 81.7344V82.7344H155.547V81.7344H154.547ZM147 81.7344V80.7344H146V81.7344H147ZM147 95V96H148V95H147ZM128.719 95H127.719V96H128.719V95ZM128.719 81.7344H129.719V80.7344H128.719V81.7344ZM101.391 81.7344H100.391V82.7344H101.391V81.7344ZM101.391 68.1406L100.565 67.5761L100.391 67.8314V68.1406H101.391ZM129.891 26.4688V25.4688H129.363L129.065 25.9042L129.891 26.4688ZM147 26.4688H148V25.4688H147V26.4688ZM147 67.9062H146V68.9062H147V67.9062ZM154.547 67.9062H155.547V66.9062H154.547V67.9062ZM128.719 67.9062V68.9062H129.719V67.9062H128.719ZM128.859 53.8906L127.86 53.8419L127.86 53.8536L128.859 53.8906ZM129.141 49.8594L130.035 50.3066L130.759 48.8594H129.141V49.8594ZM128.625 49.8594V48.8594H127.973L127.71 49.4554L128.625 49.8594ZM125.016 56.6094L125.846 57.1673L125.851 57.1584L125.857 57.1495L125.016 56.6094ZM117.422 67.9062L116.592 67.3484L115.545 68.9062H117.422V67.9062ZM154.547 80.7344H147V82.7344H154.547V80.7344ZM146 81.7344V95H148V81.7344H146ZM147 94H128.719V96H147V94ZM129.719 95V81.7344H127.719V95H129.719ZM128.719 80.7344H101.391V82.7344H128.719V80.7344ZM102.391 81.7344V68.1406H100.391V81.7344H102.391ZM102.216 68.7051L130.716 27.0333L129.065 25.9042L100.565 67.5761L102.216 68.7051ZM129.891 27.4688H147V25.4688H129.891V27.4688ZM146 26.4688V67.9062H148V26.4688H146ZM147 68.9062H154.547V66.9062H147V68.9062ZM153.547 67.9062V81.7344H155.547V67.9062H153.547ZM129.719 67.9062V59.9375H127.719V67.9062H129.719ZM129.719 59.9375C129.719 58.4554 129.765 56.4537 129.859 53.9276L127.86 53.8536C127.766 56.3901 127.719 58.4196 127.719 59.9375H129.719ZM129.858 53.9393C129.921 52.66 129.975 51.6918 130.021 51.0305C130.044 50.6986 130.065 50.453 130.082 50.2874C130.091 50.2034 130.098 50.1518 130.103 50.1249C130.105 50.1109 130.105 50.1149 130.101 50.13C130.099 50.1378 130.095 50.1557 130.087 50.1798C130.08 50.2003 130.064 50.2478 130.035 50.3066L128.246 49.4122C128.189 49.5273 128.164 49.6327 128.156 49.6642C128.144 49.714 128.135 49.7621 128.129 49.8019C128.116 49.8824 128.104 49.9763 128.093 50.0759C128.072 50.2775 128.05 50.5514 128.026 50.8913C127.978 51.5738 127.923 52.5587 127.861 53.8419L129.858 53.9393ZM129.141 48.8594H128.625V50.8594H129.141V48.8594ZM127.71 49.4554C126.667 51.8172 125.488 54.0213 124.174 56.0693L125.857 57.1495C127.23 55.0099 128.458 52.7141 129.54 50.2633L127.71 49.4554ZM124.186 56.0515L116.592 67.3484L118.252 68.4641L125.846 57.1673L124.186 56.0515ZM117.422 68.9062H128.719V66.9062H117.422V68.9062Z" fill="#D93030"/>
<g opacity="0.6" filter="url(#filter0_f_1975_5205)">
<circle cx="20.2975" cy="58.65" r="10.3131" fill="url(#paint0_linear_1975_5205)"/>
</g>
<circle cx="20" cy="56.4634" r="12.5" fill="url(#paint1_linear_1975_5205)"/>
<path d="M26.4959 53.1263L18.8496 61.4502L13.8254 56.6843" stroke="#FCFCFC" stroke-width="2" stroke-linecap="round"/>
<defs>
<filter id="filter0_f_1975_5205" x="0.984375" y="39.3369" width="38.626" height="38.626" filterUnits="userSpaceOnUse" color-interpolation-filters="sRGB">
<feFlood flood-opacity="0" result="BackgroundImageFix"/>
<feBlend mode="normal" in="SourceGraphic" in2="BackgroundImageFix" result="shape"/>
<feGaussianBlur stdDeviation="4.5" result="effect1_foregroundBlur_1975_5205"/>
</filter>
<linearGradient id="paint0_linear_1975_5205" x1="20.2975" y1="48.3369" x2="20.2975" y2="68.9631" gradientUnits="userSpaceOnUse">
<stop stop-color="#C63B3B"/>
<stop offset="1" stop-color="#D93030"/>
</linearGradient>
<linearGradient id="paint1_linear_1975_5205" x1="20" y1="43.9634" x2="20" y2="68.9634" gradientUnits="userSpaceOnUse">
<stop stop-color="#C63B3B"/>
<stop offset="1" stop-color="#D93030"/>
</linearGradient>
</defs>
</svg>
