<svg width="34" height="33" viewBox="0 0 34 33" fill="none" xmlns="http://www.w3.org/2000/svg">
<path fill-rule="evenodd" clip-rule="evenodd" d="M17.0015 0C12.5204 0 11.958 0.0195938 10.198 0.0996875C8.4414 0.180125 7.24238 0.458219 6.19325 0.86625C5.10802 1.28769 4.18744 1.85144 3.27031 2.76891C2.35249 3.68603 1.78873 4.60659 1.36592 5.69147C0.956849 6.74094 0.678408 7.94028 0.599345 9.69616C0.520625 11.4562 0.5 12.0189 0.5 16.5C0.5 20.9811 0.519938 21.5418 0.599689 23.3018C0.680471 25.0583 0.958567 26.2573 1.36626 27.3065C1.78804 28.3917 2.3518 29.3123 3.26928 30.2294C4.18607 31.1472 5.10664 31.7123 6.19118 32.1338C7.24101 32.5418 8.44036 32.8199 10.1966 32.9003C11.9566 32.9804 12.5187 33 16.9995 33C21.481 33 22.0417 32.9804 23.8017 32.9003C25.5583 32.8199 26.7586 32.5418 27.8085 32.1338C28.8934 31.7123 29.8126 31.1472 30.7293 30.2294C31.6472 29.3123 32.2109 28.3917 32.6337 27.3068C33.0394 26.2573 33.3178 25.058 33.4003 23.3021C33.4794 21.5421 33.5 20.9811 33.5 16.5C33.5 12.0189 33.4794 11.4565 33.4003 9.6965C33.3178 7.93994 33.0394 6.74094 32.6337 5.69181C32.2109 4.60659 31.6472 3.68603 30.7293 2.76891C29.8115 1.85109 28.8937 1.28734 27.8074 0.86625C26.7556 0.458219 25.5559 0.180125 23.7993 0.0996875C22.0393 0.0195938 21.4789 0 16.9964 0H17.0015ZM15.5213 2.97339C15.9606 2.9727 16.4508 2.97339 17.0015 2.97339C21.407 2.97339 21.9292 2.9892 23.6689 3.06827C25.2777 3.14183 26.1508 3.41064 26.7325 3.63649C27.5025 3.93555 28.0514 4.29305 28.6286 4.87055C29.2061 5.44805 29.5636 5.99805 29.8634 6.76805C30.0892 7.34899 30.3584 8.22211 30.4316 9.83086C30.5106 11.5702 30.5278 12.0927 30.5278 16.4962C30.5278 20.8996 30.5106 21.4221 30.4316 23.1615C30.358 24.7702 30.0892 25.6434 29.8634 26.2243C29.5643 26.9943 29.2061 27.5426 28.6286 28.1197C28.0511 28.6972 27.5028 29.0547 26.7325 29.3538C26.1515 29.5807 25.2777 29.8488 23.6689 29.9224C21.9295 30.0014 21.407 30.0186 17.0015 30.0186C12.5956 30.0186 12.0734 30.0014 10.334 29.9224C8.72526 29.8481 7.85213 29.5793 7.27016 29.3535C6.50015 29.0544 5.95014 28.6969 5.37264 28.1194C4.79513 27.5419 4.43763 26.9933 4.13787 26.2229C3.91203 25.642 3.64287 24.7689 3.56965 23.1601C3.49059 21.4207 3.47477 20.8982 3.47477 16.492C3.47477 12.0859 3.49059 11.5661 3.56965 9.82674C3.64321 8.21799 3.91203 7.34486 4.13787 6.76324C4.43694 5.99324 4.79513 5.44323 5.37264 4.86574C5.95014 4.28824 6.50015 3.93074 7.27016 3.63099C7.85179 3.40411 8.72526 3.13598 10.334 3.06208C11.8562 2.99333 12.4461 2.9727 15.5213 2.96927V2.97339ZM25.8091 5.71309C24.716 5.71309 23.8291 6.59893 23.8291 7.6924C23.8291 8.78552 24.716 9.6724 25.8091 9.6724C26.9023 9.6724 27.7892 8.78552 27.7892 7.6924C27.7892 6.59927 26.9023 5.71309 25.8091 5.71309ZM17.0016 8.02652C12.3221 8.02652 8.52805 11.8205 8.52805 16.5C8.52805 21.1794 12.3221 24.9717 17.0016 24.9717C21.6811 24.9717 25.4737 21.1794 25.4737 16.5C25.4737 11.8205 21.6811 8.02652 17.0016 8.02652ZM17.0015 11C20.0389 11 22.5016 13.4622 22.5016 16.5C22.5016 19.5373 20.0389 22 17.0015 22C13.9638 22 11.5015 19.5373 11.5015 16.5C11.5015 13.4622 13.9638 11 17.0015 11Z" fill="#C63B3B"/>
</svg>
