<svg width="157" height="116" viewBox="0 0 157 116" fill="none" xmlns="http://www.w3.org/2000/svg">
<path d="M90.0586 88.0254L90.8693 88.6109L90.8708 88.6087L90.0586 88.0254ZM52.8867 87.6504L52.0689 88.2259L52.0704 88.2279L52.8867 87.6504ZM89.8711 34.916L89.0518 35.4895L89.0553 35.4944L89.8711 34.916ZM76.2773 77.1973L75.3257 76.89L75.3229 76.899L76.2773 77.1973ZM76.2773 45.416L75.3239 45.7176L75.3248 45.7204L76.2773 45.416ZM95.1523 61.3535C95.1523 73.407 93.1255 82.0411 89.2464 87.442L90.8708 88.6087C95.1167 82.6972 97.1523 73.55 97.1523 61.3535H95.1523ZM89.2479 87.4399C85.4135 92.7492 79.5313 95.4629 71.4023 95.4629V97.4629C80.0233 97.4629 86.5787 94.5516 90.8693 88.6109L89.2479 87.4399ZM71.4023 95.4629C63.4878 95.4629 57.6439 92.6434 53.7031 87.0729L52.0704 88.2279C56.442 94.4074 62.9419 97.4629 71.4023 97.4629V95.4629ZM53.7045 87.0749C49.7193 81.4117 47.6523 72.8877 47.6523 61.3535H45.6523C45.6523 73.0694 47.7417 82.0766 52.0689 88.2259L53.7045 87.0749ZM47.6523 61.3535C47.6523 49.2369 49.6794 40.5549 53.5598 35.1223L51.9324 33.9598C47.6878 39.9021 45.6523 49.0951 45.6523 61.3535H47.6523ZM53.5598 35.1223C57.396 29.7516 63.2776 27.0098 71.4023 27.0098V25.0098C62.777 25.0098 56.2212 27.9555 51.9324 33.9598L53.5598 35.1223ZM71.4023 27.0098C79.2798 27.0098 85.1084 29.856 89.0519 35.4895L90.6903 34.3426C86.3213 28.101 79.8374 25.0098 71.4023 25.0098V27.0098ZM89.0553 35.4944C93.0694 41.156 95.1523 49.7246 95.1523 61.3535H97.1523C97.1523 49.5449 95.0478 40.4885 90.6869 34.3376L89.0553 35.4944ZM64.0742 61.3535C64.0742 69.0957 64.5524 74.5755 65.5787 77.6541L67.476 77.0217C66.5647 74.2878 66.0742 69.1113 66.0742 61.3535H64.0742ZM65.5787 77.6541C66.0969 79.209 66.8217 80.4725 67.8061 81.3529C68.811 82.2515 70.0283 82.6973 71.4023 82.6973V80.6973C70.4951 80.6973 69.7593 80.4165 69.1392 79.862C68.4987 79.2892 67.9265 78.3731 67.476 77.0217L65.5787 77.6541ZM71.4023 82.6973C72.7973 82.6973 74.0274 82.236 75.0337 81.3071C76.018 80.3985 76.7316 79.0962 77.2318 77.4955L75.3229 76.899C74.8856 78.2983 74.318 79.246 73.6772 79.8375C73.0585 80.4086 72.3198 80.6973 71.4023 80.6973V82.6973ZM77.229 77.5046C78.2511 74.3393 78.7305 68.9151 78.7305 61.3535H76.7305C76.7305 68.9169 76.2411 74.0552 75.3257 76.89L77.229 77.5046ZM78.7305 61.3535C78.7305 53.76 78.2509 48.3064 77.2299 45.1116L75.3248 45.7204C76.2413 48.5881 76.7305 53.7596 76.7305 61.3535H78.7305ZM77.2308 45.1144C76.7161 43.4875 75.997 42.1656 75.0178 41.2429C74.0154 40.2983 72.7918 39.8223 71.4023 39.8223V41.8223C72.2942 41.8223 73.0237 42.1119 73.6462 42.6985C74.292 43.307 74.8698 44.2821 75.3239 45.7176L77.2308 45.1144ZM71.4023 39.8223C70.0252 39.8223 68.8066 40.274 67.8021 41.182C66.8187 42.0708 66.0952 43.3461 65.5777 44.9153L67.477 45.5417C67.9283 44.1734 68.5016 43.2456 69.1432 42.6657C69.7637 42.1049 70.4982 41.8223 71.4023 41.8223V39.8223ZM65.5777 44.9153C64.5526 48.0236 64.0742 53.5485 64.0742 61.3535H66.0742C66.0742 53.5335 66.5646 48.3084 67.477 45.5417L65.5777 44.9153ZM152.121 95.5254V96.5254H153.121V95.5254H152.121ZM102.387 95.5254H101.387V96.5254H102.387V95.5254ZM102.387 83.3379L101.676 82.6347L101.387 82.9269V83.3379H102.387ZM119.121 66.416L119.832 67.1192L119.838 67.1132L119.844 67.1071L119.121 66.416ZM128.496 56.1973L129.273 56.8269L129.278 56.8203L128.496 56.1973ZM131.543 51.4629L130.632 51.0507L130.628 51.0598L130.624 51.069L131.543 51.4629ZM119.262 43.4473L119.748 44.3208L119.753 44.3185L119.262 43.4473ZM111.809 48.8848L111.048 49.5343L111.702 50.2994L112.463 49.641L111.809 48.8848ZM101.637 36.9785L100.97 36.2329L100.241 36.8846L100.876 37.6281L101.637 36.9785ZM110.543 30.2285L111.031 31.1016L111.039 31.0968L110.543 30.2285ZM118.371 27.0879L118.126 26.1184L118.123 26.119L118.371 27.0879ZM139.793 28.3535L139.382 29.2653L139.385 29.2667L139.793 28.3535ZM147.902 35.0566L147.066 35.6051L147.073 35.6155L147.902 35.0566ZM149.777 52.2129L148.82 51.9243L148.816 51.9364L149.777 52.2129ZM146.684 58.9629L147.525 59.5037L147.528 59.4982L146.684 58.9629ZM141.059 65.9004L140.338 65.2073L140.333 65.2121L141.059 65.9004ZM126.199 79.7754L125.531 79.031L125.199 79.3291V79.7754H126.199ZM126.199 80.2441H125.199V81.2441H126.199V80.2441ZM152.121 80.2441H153.121V79.2441H152.121V80.2441ZM152.121 94.5254H102.387V96.5254H152.121V94.5254ZM103.387 95.5254V83.3379H101.387V95.5254H103.387ZM103.098 84.041L119.832 67.1192L118.41 65.7129L101.676 82.6347L103.098 84.041ZM119.844 67.1071C124.621 62.1118 127.774 58.6765 129.273 56.8269L127.719 55.5677C126.28 57.3431 123.184 60.7202 118.398 65.7249L119.844 67.1071ZM129.278 56.8203C130.772 54.9457 131.849 53.2873 132.462 51.8568L130.624 51.069C130.112 52.2635 129.158 53.7613 127.714 55.5742L129.278 56.8203ZM132.454 51.8751C133.106 50.4333 133.434 48.9178 133.434 47.3379H131.434C131.434 48.6329 131.167 49.8674 130.632 51.0507L132.454 51.8751ZM133.434 47.3379C133.434 45.3187 132.767 43.6231 131.365 42.3728L130.034 43.8654C130.944 44.6777 131.434 45.7945 131.434 47.3379H133.434ZM131.365 42.3728C129.969 41.1282 128.076 40.5723 125.824 40.5723V42.5723C127.76 42.5723 129.117 43.0476 130.034 43.8654L131.365 42.3728ZM125.824 40.5723C123.467 40.5723 121.112 41.257 118.771 42.576L119.753 44.3185C121.849 43.1376 123.869 42.5723 125.824 42.5723V40.5723ZM118.775 42.5737C116.507 43.8372 113.966 45.6963 111.154 48.1285L112.463 49.641C115.214 47.2608 117.641 45.4948 119.748 44.3208L118.775 42.5737ZM112.569 48.2352L102.397 36.329L100.876 37.6281L111.048 49.5343L112.569 48.2352ZM102.303 37.7241C105.813 34.5872 108.718 32.393 111.031 31.1016L110.055 29.3554C107.555 30.7516 104.523 33.0573 100.97 36.2329L102.303 37.7241ZM111.039 31.0968C113.364 29.7684 115.889 28.7543 118.619 28.0568L118.123 26.119C115.228 26.859 112.535 27.9387 110.047 29.3603L111.039 31.0968ZM118.616 28.0574C121.365 27.3625 124.469 27.0098 127.934 27.0098V25.0098C124.336 25.0098 121.064 25.3758 118.126 26.1184L118.616 28.0574ZM127.934 27.0098C132.253 27.0098 136.062 27.7698 139.382 29.2653L140.204 27.4417C136.586 25.8122 132.489 25.0098 127.934 25.0098V27.0098ZM139.385 29.2667C142.729 30.7594 145.276 32.8752 147.066 35.6051L148.739 34.5082C146.717 31.4256 143.857 29.0726 140.201 27.4404L139.385 29.2667ZM147.073 35.6155C148.895 38.3191 149.809 41.3574 149.809 44.7598H151.809C151.809 40.9746 150.785 37.5442 148.732 34.4978L147.073 35.6155ZM149.809 44.7598C149.809 47.3618 149.476 49.7478 148.82 51.9243L150.735 52.5014C151.454 50.1155 151.809 47.5327 151.809 44.7598H149.809ZM148.816 51.9364C148.189 54.1171 147.2 56.2807 145.839 58.4276L147.528 59.4982C148.98 57.2076 150.053 54.8711 150.738 52.4893L148.816 51.9364ZM145.842 58.4221C144.48 60.5417 142.649 62.8034 140.338 65.2073L141.779 66.5935C144.156 64.1223 146.075 61.7591 147.525 59.5036L145.842 58.4221ZM140.333 65.2121C138.053 67.6155 133.13 72.2138 125.531 79.031L126.867 80.5198C134.455 73.712 139.439 69.0603 141.784 66.5887L140.333 65.2121ZM125.199 79.7754V80.2441H127.199V79.7754H125.199ZM126.199 81.2441H152.121V79.2441H126.199V81.2441ZM151.121 80.2441V95.5254H153.121V80.2441H151.121Z" fill="#D93030"/>
<g opacity="0.6" filter="url(#filter0_f_1975_5207)">
<circle cx="20.2975" cy="58.4493" r="10.3131" fill="url(#paint0_linear_1975_5207)"/>
</g>
<circle cx="20" cy="56.2627" r="12.5" fill="url(#paint1_linear_1975_5207)"/>
<path d="M26.4959 52.9257L18.8496 61.2495L13.8254 56.4836" stroke="#FCFCFC" stroke-width="2" stroke-linecap="round"/>
<defs>
<filter id="filter0_f_1975_5207" x="0.984375" y="39.1362" width="38.626" height="38.626" filterUnits="userSpaceOnUse" color-interpolation-filters="sRGB">
<feFlood flood-opacity="0" result="BackgroundImageFix"/>
<feBlend mode="normal" in="SourceGraphic" in2="BackgroundImageFix" result="shape"/>
<feGaussianBlur stdDeviation="4.5" result="effect1_foregroundBlur_1975_5207"/>
</filter>
<linearGradient id="paint0_linear_1975_5207" x1="20.2975" y1="48.1362" x2="20.2975" y2="68.7624" gradientUnits="userSpaceOnUse">
<stop stop-color="#C63B3B"/>
<stop offset="1" stop-color="#D93030"/>
</linearGradient>
<linearGradient id="paint1_linear_1975_5207" x1="20" y1="43.7627" x2="20" y2="68.7627" gradientUnits="userSpaceOnUse">
<stop stop-color="#C63B3B"/>
<stop offset="1" stop-color="#D93030"/>
</linearGradient>
</defs>
</svg>
