<svg width="161" height="153" viewBox="0 0 161 153" fill="none" xmlns="http://www.w3.org/2000/svg">
<path fill-rule="evenodd" clip-rule="evenodd" d="M80.4975 7.44596e-08C78.6141 7.44596e-08 76.8943 1.06494 76.0607 2.74711L56.7652 41.6925C54.9503 45.3552 51.4425 47.8937 47.3849 48.4813L4.23651 54.7291C2.37268 54.9995 0.824384 56.2997 0.242304 58.0837C-0.339776 59.8677 0.145944 61.8265 1.49433 63.1361L32.7173 93.4536C35.6538 96.3054 36.9937 100.413 36.3002 104.439L28.9302 147.238C28.612 149.086 29.3747 150.955 30.8985 152.058C32.422 153.16 34.442 153.306 36.1092 152.433L74.7005 132.227C78.3302 130.326 82.6658 130.326 86.2948 132.226L124.89 152.434C126.557 153.307 128.577 153.162 130.1 152.059C131.624 150.957 132.387 149.088 132.069 147.239L124.702 104.437C124.009 100.413 125.349 96.3054 128.285 93.4542L159.506 63.1357C160.855 61.8261 161.339 59.8674 160.758 58.0834C160.176 56.299 158.627 54.9989 156.763 54.7288L113.614 48.4807C109.556 47.8937 106.049 45.3548 104.234 41.6928L84.9346 2.74679C84.101 1.06462 82.3809 -0.000325128 80.4975 7.44596e-08ZM80.4982 23C79.1763 23 77.9693 23.7448 77.3842 24.9212L63.8414 52.1575C62.5676 54.719 60.1056 56.4943 57.2577 56.9052L26.9735 61.2746C25.6653 61.4637 24.5786 62.373 24.1701 63.6206C23.7615 64.8683 24.1024 66.2381 25.0488 67.154L46.9631 88.3564C49.0241 90.3509 49.9645 93.2236 49.4778 96.0393L44.305 125.97C44.0817 127.263 44.617 128.57 45.6865 129.341C46.7558 130.112 48.1736 130.214 49.3437 129.604L76.4296 115.472C78.9771 114.143 82.0201 114.143 84.5671 115.472L111.656 129.604C112.825 130.214 114.243 130.113 115.312 129.342C116.382 128.571 116.918 127.264 116.694 125.971L111.524 96.0379C111.038 93.2232 111.978 90.3509 114.038 88.3569L135.951 67.1538C136.898 66.2379 137.238 64.868 136.83 63.6204C136.421 62.3725 135.335 61.4633 134.026 61.2744L103.741 56.9048C100.893 56.4943 98.4316 54.7187 97.1579 52.1577L83.6125 24.921C83.0274 23.7445 81.8202 22.9998 80.4982 23Z" fill="#F6F6F6"/>
</svg>
