<svg width="157" height="116" viewBox="0 0 157 116" fill="none" xmlns="http://www.w3.org/2000/svg">
<path d="M90.0586 87.5508L90.8693 88.1363L90.8708 88.1341L90.0586 87.5508ZM52.8867 87.1758L52.0689 87.7513L52.0704 87.7533L52.8867 87.1758ZM89.8711 34.4414L89.0518 35.0149L89.0553 35.0198L89.8711 34.4414ZM76.2773 76.7227L75.3257 76.4154L75.3229 76.4244L76.2773 76.7227ZM76.2773 44.9414L75.3239 45.243L75.3248 45.2458L76.2773 44.9414ZM95.1523 60.8789C95.1523 72.9324 93.1255 81.5665 89.2464 86.9674L90.8708 88.1341C95.1167 82.2225 97.1523 73.0754 97.1523 60.8789H95.1523ZM89.2479 86.9653C85.4135 92.2746 79.5313 94.9883 71.4023 94.9883V96.9883C80.0233 96.9883 86.5787 94.077 90.8693 88.1363L89.2479 86.9653ZM71.4023 94.9883C63.4878 94.9883 57.6439 92.1688 53.7031 86.5982L52.0704 87.7533C56.442 93.9328 62.9419 96.9883 71.4023 96.9883V94.9883ZM53.7045 86.6003C49.7193 80.937 47.6523 72.4131 47.6523 60.8789H45.6523C45.6523 72.5947 47.7417 81.602 52.0689 87.7513L53.7045 86.6003ZM47.6523 60.8789C47.6523 48.7623 49.6794 40.0803 53.5598 34.6476L51.9324 33.4852C47.6878 39.4275 45.6523 48.6205 45.6523 60.8789H47.6523ZM53.5598 34.6476C57.396 29.277 63.2776 26.5352 71.4023 26.5352V24.5352C62.777 24.5352 56.2212 27.4809 51.9324 33.4852L53.5598 34.6476ZM71.4023 26.5352C79.2798 26.5352 85.1084 29.3814 89.0519 35.0149L90.6903 33.8679C86.3213 27.6264 79.8374 24.5352 71.4023 24.5352V26.5352ZM89.0553 35.0198C93.0694 40.6814 95.1523 49.25 95.1523 60.8789H97.1523C97.1523 49.0703 95.0478 40.0139 90.6869 33.863L89.0553 35.0198ZM64.0742 60.8789C64.0742 68.6211 64.5524 74.1008 65.5787 77.1795L67.476 76.5471C66.5647 73.8132 66.0742 68.6367 66.0742 60.8789H64.0742ZM65.5787 77.1795C66.0969 78.7344 66.8217 79.9979 67.8061 80.8782C68.811 81.7769 70.0283 82.2227 71.4023 82.2227V80.2227C70.4951 80.2227 69.7593 79.9418 69.1392 79.3874C68.4987 78.8146 67.9265 77.8985 67.476 76.5471L65.5787 77.1795ZM71.4023 82.2227C72.7973 82.2227 74.0274 81.7614 75.0337 80.8325C76.018 79.9239 76.7316 78.6216 77.2318 77.0209L75.3229 76.4244C74.8856 77.8237 74.318 78.7714 73.6772 79.3629C73.0585 79.934 72.3198 80.2227 71.4023 80.2227V82.2227ZM77.229 77.0299C78.2511 73.8647 78.7305 68.4405 78.7305 60.8789H76.7305C76.7305 68.4423 76.2411 73.5806 75.3257 76.4154L77.229 77.0299ZM78.7305 60.8789C78.7305 53.2854 78.2509 47.8318 77.2299 44.637L75.3248 45.2458C76.2413 48.1135 76.7305 53.2849 76.7305 60.8789H78.7305ZM77.2308 44.6398C76.7161 43.0129 75.997 41.691 75.0178 40.7683C74.0154 39.8237 72.7918 39.3477 71.4023 39.3477V41.3477C72.2942 41.3477 73.0237 41.6373 73.6462 42.2239C74.292 42.8324 74.8698 43.8074 75.3239 45.243L77.2308 44.6398ZM71.4023 39.3477C70.0252 39.3477 68.8066 39.7994 67.8021 40.7073C66.8187 41.5962 66.0952 42.8715 65.5777 44.4407L67.477 45.0671C67.9283 43.6988 68.5016 42.771 69.1432 42.1911C69.7637 41.6303 70.4982 41.3477 71.4023 41.3477V39.3477ZM65.5777 44.4407C64.5526 47.549 64.0742 53.0739 64.0742 60.8789H66.0742C66.0742 53.0589 66.5646 47.8338 67.477 45.0671L65.5777 44.4407ZM145.934 52.3477L146.693 52.9978L146.697 52.9939L145.934 52.3477ZM134.684 58.957L134.414 57.9941L133.684 58.1988V58.957H134.684ZM134.684 59.2383H133.684V60.1205L134.559 60.2305L134.684 59.2383ZM144.246 90.5039L143.661 89.6932L143.658 89.695L144.246 90.5039ZM112.98 95.1914L112.813 96.1773L112.814 96.1775L112.98 95.1914ZM102.809 92.2852H101.809V92.972L102.45 93.2185L102.809 92.2852ZM102.809 76.9102L103.263 76.0195L101.809 75.277V76.9102H102.809ZM111.949 80.332L111.714 81.3039L111.725 81.3066L111.949 80.332ZM129.434 79.7227L129.954 80.5763L129.958 80.5738L129.434 79.7227ZM130.793 70.0195L130.064 70.7042L130.069 70.7098L130.075 70.7153L130.793 70.0195ZM126.105 67.7227L125.866 68.6937L125.88 68.6968L126.105 67.7227ZM113.449 66.9258H112.449V67.9258H113.449V66.9258ZM113.449 53.0039V52.0039H112.449V53.0039H113.449ZM129.762 41.7539L129.225 42.5976L129.233 42.603L129.762 41.7539ZM110.59 44.8477L109.74 45.3753L110.27 46.2281L111.121 45.695L110.59 44.8477ZM102.902 32.4727L102.335 31.6494L101.55 32.1906L102.053 33.0003L102.902 32.4727ZM114.012 27.1289L113.743 26.1656L113.741 26.1662L114.012 27.1289ZM148.824 41.3789C148.824 45.4074 147.602 48.8307 145.171 51.7014L146.697 52.9939C149.453 49.7396 150.824 45.8505 150.824 41.3789H148.824ZM145.174 51.6975C142.74 54.5416 139.182 56.6578 134.414 57.9941L134.953 59.9199C139.998 58.5062 143.939 56.2163 146.693 52.9978L145.174 51.6975ZM133.684 58.957V59.2383H135.684V58.957H133.684ZM134.559 60.2305C140.161 60.9345 144.216 62.5944 146.864 65.0978C149.485 67.5762 150.84 70.9876 150.84 75.457H152.84C152.84 70.5515 151.335 66.5723 148.238 63.6444C145.167 60.7415 140.644 58.9796 134.808 58.2461L134.559 60.2305ZM150.84 75.457C150.84 81.5189 148.456 86.2296 143.661 89.6932L144.832 91.3146C150.161 87.4657 152.84 82.1452 152.84 75.457H150.84ZM143.658 89.695C138.858 93.183 132.093 94.9883 123.246 94.9883V96.9883C132.336 96.9883 139.571 95.1373 144.834 91.3129L143.658 89.695ZM123.246 94.9883C119.606 94.9883 116.24 94.726 113.146 94.2053L112.814 96.1775C116.033 96.7193 119.511 96.9883 123.246 96.9883V94.9883ZM113.148 94.2056C110.102 93.6877 106.776 92.7396 103.168 91.3518L102.45 93.2185C106.154 94.6432 109.609 95.6327 112.813 96.1773L113.148 94.2056ZM103.809 92.2852V76.9102H101.809V92.2852H103.809ZM102.354 77.8008C105.42 79.3656 108.54 80.5344 111.714 81.3039L112.185 79.3602C109.171 78.6296 106.198 77.5173 103.263 76.0195L102.354 77.8008ZM111.725 81.3066C114.908 82.0387 117.859 82.4102 120.574 82.4102V80.4102C118.039 80.4102 115.24 80.0629 112.173 79.3575L111.725 81.3066ZM120.574 82.4102C124.684 82.4102 127.868 81.8493 129.954 80.5763L128.913 78.869C127.312 79.846 124.59 80.4102 120.574 80.4102V82.4102ZM129.958 80.5738C132.165 79.2134 133.246 77.0723 133.246 74.332H131.246C131.246 76.4668 130.453 77.9194 128.909 78.8715L129.958 80.5738ZM133.246 74.332C133.246 72.2896 132.716 70.5674 131.511 69.3237L130.075 70.7153C130.807 71.4716 131.246 72.6245 131.246 74.332H133.246ZM131.522 69.3349C130.361 68.0993 128.58 67.2699 126.331 66.7485L125.88 68.6968C127.944 69.1754 129.287 69.8772 130.064 70.7042L131.522 69.3349ZM126.345 66.7517C124.079 66.1935 121.178 65.9258 117.668 65.9258V67.9258C121.096 67.9258 123.819 68.1893 125.866 68.6936L126.345 66.7517ZM117.668 65.9258H113.449V67.9258H117.668V65.9258ZM114.449 66.9258V53.0039H112.449V66.9258H114.449ZM113.449 54.0039H117.762V52.0039H113.449V54.0039ZM117.762 54.0039C122.518 54.0039 126.236 53.401 128.799 52.0895C130.095 51.4263 131.125 50.5675 131.827 49.4892C132.533 48.4059 132.871 47.1586 132.871 45.7852H130.871C130.871 46.8179 130.621 47.6762 130.151 48.3975C129.678 49.1239 128.944 49.769 127.888 50.309C125.749 51.4037 122.412 52.0039 117.762 52.0039V54.0039ZM132.871 45.7852C132.871 43.6662 132.021 41.9821 130.29 40.9049L129.233 42.603C130.315 43.2757 130.871 44.2791 130.871 45.7852H132.871ZM130.299 40.9102C128.707 39.8977 126.638 39.4414 124.184 39.4414V41.4414C126.416 41.4414 128.066 41.8601 129.225 42.5976L130.299 40.9102ZM124.184 39.4414C119.577 39.4414 114.864 40.9892 110.059 44.0003L111.121 45.695C115.691 42.8311 120.04 41.4414 124.184 41.4414V39.4414ZM111.439 44.32L103.752 31.945L102.053 33.0003L109.74 45.3753L111.439 44.32ZM103.47 33.2959C107.015 30.8509 110.619 29.1209 114.282 28.0916L113.741 26.1662C109.842 27.2619 106.039 29.0944 102.335 31.6494L103.47 33.2959ZM114.28 28.0922C117.987 27.0591 122.254 26.5352 127.09 26.5352V24.5352C122.114 24.5352 117.661 25.0738 113.743 26.1656L114.28 28.0922ZM127.09 26.5352C134.066 26.5352 139.401 27.92 143.205 30.574L144.35 28.9338C140.091 25.9628 134.301 24.5352 127.09 24.5352V26.5352ZM143.205 30.574C146.967 33.1985 148.824 36.7665 148.824 41.3789H150.824C150.824 36.1163 148.65 31.9343 144.35 28.9338L143.205 30.574Z" fill="#D93030"/>
<g opacity="0.6" filter="url(#filter0_f_1975_5206)">
<circle cx="20.2975" cy="59.4747" r="10.3131" fill="url(#paint0_linear_1975_5206)"/>
</g>
<circle cx="20" cy="57.2881" r="12.5" fill="url(#paint1_linear_1975_5206)"/>
<path d="M26.4959 53.9511L18.8496 62.2749L13.8254 57.509" stroke="#FCFCFC" stroke-width="2" stroke-linecap="round"/>
<defs>
<filter id="filter0_f_1975_5206" x="0.984375" y="40.1616" width="38.626" height="38.626" filterUnits="userSpaceOnUse" color-interpolation-filters="sRGB">
<feFlood flood-opacity="0" result="BackgroundImageFix"/>
<feBlend mode="normal" in="SourceGraphic" in2="BackgroundImageFix" result="shape"/>
<feGaussianBlur stdDeviation="4.5" result="effect1_foregroundBlur_1975_5206"/>
</filter>
<linearGradient id="paint0_linear_1975_5206" x1="20.2975" y1="49.1616" x2="20.2975" y2="69.7878" gradientUnits="userSpaceOnUse">
<stop stop-color="#C63B3B"/>
<stop offset="1" stop-color="#D93030"/>
</linearGradient>
<linearGradient id="paint1_linear_1975_5206" x1="20" y1="44.7881" x2="20" y2="69.7881" gradientUnits="userSpaceOnUse">
<stop stop-color="#C63B3B"/>
<stop offset="1" stop-color="#D93030"/>
</linearGradient>
</defs>
</svg>
