<svg width="176" height="175" viewBox="0 0 176 175" fill="none" xmlns="http://www.w3.org/2000/svg">
<path d="M28.4907 34.5717C38.0217 34.5717 45.7482 26.8326 45.7482 17.2859C45.7482 7.73914 38.0217 0 28.4907 0C18.9596 0 11.2332 7.73914 11.2332 17.2859C11.2332 26.8326 18.9596 34.5717 28.4907 34.5717Z" fill="#F6F6F6"/>
<path d="M9.2342 95.1422H10.9457V129.428C10.9457 134.144 14.7965 138 19.5031 138H37.4737C42.1803 138 46.0312 134.144 46.0312 129.428V127.43C44.4623 124.428 43.464 121.001 43.464 117.43V72.572C43.464 63.8576 48.741 56.2862 56.3001 53.0004V49.5718C56.3001 44.8575 52.4493 41.0003 47.7427 41.0003H9.2342C4.5276 41.0003 0.676758 44.8575 0.676758 49.5718V86.5721C0.676758 91.2864 4.38498 95.1422 9.2342 95.1422Z" fill="#F6F6F6"/>
<path d="M148.008 34.5717C157.539 34.5717 165.265 26.8326 165.265 17.2859C165.265 7.73914 157.539 0 148.008 0C138.477 0 130.75 7.73914 130.75 17.2859C130.75 26.8326 138.477 34.5717 148.008 34.5717Z" fill="#F6F6F6"/>
<path d="M120.053 49.429V52.8575C127.614 56.1433 132.89 63.7148 132.89 72.4291V117.144C132.89 120.715 132.034 124.144 130.324 127.144V129.144C130.324 133.858 134.173 137.715 138.881 137.715H156.852C161.558 137.715 165.409 133.858 165.409 129.144V94.8579H167.119C171.827 94.8579 175.677 91.0007 175.677 86.2864V49.429C175.677 44.7146 171.827 40.8575 167.119 40.8575H128.611C123.906 40.8575 120.053 44.7132 120.053 49.429Z" fill="#F6F6F6"/>
<path d="M56.4425 72.5706V117.428C56.4425 122.142 60.2933 126 64.9999 126H68.2803V166.428C68.2803 171.143 72.1311 175 76.8377 175H99.8002C104.507 175 108.358 171.143 108.358 166.428V125.857H111.638C116.345 125.857 120.195 122.001 120.195 117.285V72.5721C120.195 67.8577 116.345 64.0006 111.638 64.0006H64.9999C60.1507 63.9991 56.4425 67.8577 56.4425 72.5706Z" fill="#F6F6F6"/>
<path d="M88.2478 56.8576C99.1967 56.8576 108.073 47.9672 108.073 37.0003C108.073 26.0334 99.1967 17.143 88.2478 17.143C77.2989 17.143 68.423 26.0334 68.423 37.0003C68.423 47.9672 77.2989 56.8576 88.2478 56.8576Z" fill="#F6F6F6"/>
</svg>
