<svg width="174" height="181" viewBox="0 0 174 181" fill="none" xmlns="http://www.w3.org/2000/svg">
<path d="M107.067 129.315C107.599 125.771 110.529 117.102 112.24 111.41C111.639 111.422 111.027 111.37 110.437 111.206C109.167 110.872 108.062 110.18 107.233 109.233C105.951 109.432 104.663 109.25 103.501 108.711C102.311 108.167 101.355 107.294 100.703 106.217C99.4152 106.194 98.1905 105.803 97.1261 105.06C96.6797 104.754 96.3077 104.374 95.97 103.983C96.3935 110.628 96.6797 116.609 96.7712 118.429C97.0059 122.948 94.2818 133.47 95.2204 137.842C96.1646 142.218 103.106 154.346 103.341 156.392C103.576 158.433 101.407 159.329 100.302 160.469C99.192 161.614 99.5468 163.354 100.434 164.375C101.327 165.401 103.77 166.331 104.663 168.281C105.556 170.232 104.194 177.789 104.091 179.739C103.993 181.684 106.586 181.134 107.479 179.739C108.366 178.345 112.32 171.825 112.555 167.862C112.79 163.91 110.981 158.603 110.58 156.268C110.18 153.932 106.506 133.085 107.067 129.315Z" fill="#F7F7F7"/>
<path d="M80.472 60.4581C77.5419 59.6303 74.629 58.8026 72.0995 58.0882C62.7484 55.4519 27.8962 48.6541 24.7314 48.0305C21.5667 47.4068 19.598 46.1142 18.3848 45.4395C17.1715 44.7648 8.75322 35.3137 4.98759 35.0359C1.23339 34.7581 -0.454849 38.1088 1.04454 39.923C2.54393 41.7373 10.4357 49.2778 13.7321 50.4003C17.0227 51.5172 19.2947 52.2259 22.757 53.3315C25.235 54.1309 59.4692 66.7853 79.3618 74.8587C79.3332 74.7056 79.2645 74.5639 79.2473 74.4108C79.1272 73.1068 79.4133 71.8425 80.0314 70.7483C79.4247 69.6654 79.1386 68.4011 79.2473 67.1085C79.3675 65.8045 79.8654 64.6082 80.6666 63.633C80.3118 62.6182 80.2832 61.5296 80.472 60.4581Z" fill="#F7F7F7"/>
<path d="M172.485 0.117684C170.66 -0.715737 159.019 3.0545 156.553 5.84391C154.086 8.63899 139.247 39.4869 136.958 43.8354C137.101 42.7866 134.068 39.4415 135 37.7067C135.933 35.9775 140.483 33.154 140.763 32.0371C141.044 30.9259 137.662 28.2669 138.085 27.4958C138.509 26.7305 139.281 26.0331 138.789 25.4038C138.297 24.7801 134.846 24.8425 133.856 24.1452C132.872 23.4478 130.663 21.6506 129.209 20.5167C127.755 19.3827 120.47 20.3749 117.643 22.7504C114.816 25.126 113.889 28.7431 113.557 29.7353C113.231 30.7275 111.937 30.7842 111.726 31.9691C111.52 33.154 114.759 36.998 115.817 37.4175C116.876 37.8371 121.678 40.6775 122.799 41.3238C123.921 41.9702 122.731 42.7922 121.884 42.299C121.037 41.8114 79.2255 15.2213 76.3469 13.3844C73.4626 11.5588 57.8049 12.3355 55.7561 13.3844C53.7188 14.4389 62.3832 19.6662 64.4949 19.1163C66.6123 18.5493 71.4768 16.2532 72.959 17.1546C74.4412 18.0617 112.435 48.5128 113.849 50.6786C115.262 52.8443 116.298 61.394 115.125 63.2479C114.833 63.7071 114.335 63.9566 113.734 64.0927C106.077 57.4707 95.2838 48.1783 94.2137 47.4413C92.5655 46.2847 90.2649 46.6872 89.0975 48.32C88.2619 49.4993 88.2619 50.9847 88.92 52.1583C87.5752 52.1867 86.2703 52.9294 85.6694 54.2163C85.0571 55.5147 85.3146 56.9774 86.1673 58.0263C84.8339 58.2814 83.6836 59.2452 83.3174 60.6229C82.9454 62.0119 83.449 63.3953 84.4677 64.2854C83.2029 64.773 82.2415 65.9126 82.1156 67.3356C81.9954 68.7587 82.7336 70.0457 83.9011 70.743C82.7393 71.4404 81.9954 72.733 82.1156 74.1504C82.2415 75.5791 83.2029 76.7074 84.4677 77.2006C83.4433 78.0851 82.9339 79.4741 83.3116 80.8575C83.6779 82.2522 84.8282 83.199 86.1673 83.4598C85.3146 84.5086 85.0571 85.9714 85.6694 87.2527C86.2761 88.5567 87.5752 89.2994 88.92 89.3334C88.2676 90.5127 88.2848 91.9924 89.0975 93.1603C89.933 94.3283 91.3236 94.8385 92.6628 94.6344C92.2336 95.9101 92.4968 97.3558 93.5155 98.365C94.5342 99.3798 96.0049 99.6349 97.2811 99.2041C97.0808 100.519 97.5959 101.92 98.7805 102.742C99.9709 103.564 101.453 103.564 102.643 102.923C102.678 104.256 103.433 105.548 104.732 106.144C106.043 106.75 107.514 106.495 108.572 105.656C108.836 106.971 109.791 108.105 111.199 108.474C112.59 108.848 113.992 108.343 114.885 107.329C115.377 108.587 116.527 109.534 117.975 109.653C119.411 109.772 120.705 109.041 121.409 107.89C122.113 109.041 123.406 109.772 124.854 109.653C126.29 109.528 127.429 108.581 127.916 107.329C128.82 108.343 130.216 108.848 131.618 108.474C133.015 108.1 133.965 106.966 134.234 105.656C135.292 106.489 136.763 106.745 138.085 106.144C139.384 105.543 140.134 104.256 140.162 102.912C141.353 103.558 142.841 103.558 144.031 102.736C145.685 101.585 146.091 99.3118 144.935 97.662C144.157 96.5791 134.091 85.1266 127.389 77.5124C134.972 71.4404 142.915 65.3003 143.613 63.5257C144.975 60.0786 142.967 54.8683 142.772 52.215C142.572 49.5617 160.049 10.4249 160.959 8.21944C161.875 6.00266 168.004 8.57095 170.831 7.23861C173.613 5.91194 174.316 0.956775 172.485 0.117684Z" fill="#F7F7F7"/>
</svg>
