<svg width="174" height="154" viewBox="0 0 174 154" fill="none" xmlns="http://www.w3.org/2000/svg">
<path d="M167.095 22.3972L61.5214 0.178495C57.0548 -0.761268 52.6275 2.10452 51.6825 6.54647L49.6768 19.3648L171.491 45L173.497 32.1817C174.442 27.7414 171.562 23.3373 167.095 22.3972Z" fill="#F6F6F6"/>
<path d="M122.361 48.2749C121.125 43.832 116.474 41.2058 112.024 42.4376L91.9353 48.0041L44.5777 38L39.3694 62.5635L6.82754 71.579C2.37811 72.8111 -0.252871 77.4541 0.981169 81.8956L19.3204 147.86C20.5564 152.301 25.2083 154.929 29.6577 153.696L134.854 124.556C139.303 123.322 141.934 118.681 140.7 114.238L137.552 102.914L149.351 105.404C153.828 106.351 158.265 103.468 159.212 98.9986L166.677 63.7908L124.18 54.8144L122.361 48.2749ZM134.51 81.8006L137.111 69.5275C137.502 67.6898 139.328 66.5046 141.168 66.8926L153.464 69.4911C155.307 69.8811 156.494 71.7013 156.106 73.5407L153.504 85.8138C153.113 87.6515 151.288 88.8384 149.447 88.4487L137.151 85.8519C135.307 85.4604 134.119 83.6383 134.51 81.8006ZM8.65813 78.1617L37.77 70.1004L106.459 51.0738L113.851 49.0239C113.986 48.9876 114.12 48.9704 114.252 48.9704C114.845 48.9704 115.554 49.3587 115.761 50.1024L116.629 53.222L119.348 63.0017L11.1646 92.9677L7.57768 80.0701C7.35295 79.2607 7.84758 78.386 8.65813 78.1617ZM134.104 116.063C134.242 116.564 134.097 116.978 133.95 117.236C133.805 117.495 133.525 117.834 133.023 117.971L27.8288 147.111C27.6958 147.147 27.5592 147.166 27.4276 147.166C26.8347 147.166 26.1258 146.776 25.9186 146.032L15.2219 107.556L123.405 77.5888L130.003 101.319L134.104 116.063Z" fill="#F6F6F6"/>
<path d="M45.0702 118.559C44.5551 116.707 42.6219 115.613 40.7699 116.127L28.2345 119.607C26.3842 120.12 25.289 122.055 25.8041 123.907L29.2822 136.442C29.7973 138.294 31.7305 139.388 33.5825 138.873L46.1179 135.394C47.9699 134.881 49.0634 132.946 48.5501 131.094L45.0702 118.559Z" fill="#F6F6F6"/>
</svg>
