<svg width="42" height="42" viewBox="0 0 42 42" fill="none" xmlns="http://www.w3.org/2000/svg">
<path fill-rule="evenodd" clip-rule="evenodd" d="M13.8035 23.2547C12.7114 23.2547 11.8242 22.3675 11.8242 21.2755C11.8242 20.1866 12.7114 19.2994 13.8035 19.2994C14.8955 19.2994 15.7827 20.1866 15.7827 21.2755C15.7827 22.3675 14.8955 23.2547 13.8035 23.2547ZM21.4985 23.2547C20.4064 23.2547 19.5192 22.3675 19.5192 21.2755C19.5192 20.1867 20.4064 19.2995 21.4985 19.2995C22.5906 19.2995 23.4777 20.1867 23.4777 21.2755C23.4777 22.3675 22.5906 23.2547 21.4985 23.2547ZM27.213 21.2755C27.213 22.3675 28.1001 23.2547 29.1922 23.2547C30.2843 23.2547 31.1714 22.3675 31.1714 21.2755C31.1714 20.1867 30.2843 19.2995 29.1922 19.2995C28.1001 19.2995 27.213 20.1867 27.213 21.2755Z" fill="#D93030"/>
<path fill-rule="evenodd" clip-rule="evenodd" d="M21.1294 3.96167C11.2888 3.96167 4.1582 12.0003 4.1582 20.9245C4.1582 23.7742 4.98813 26.7071 6.44474 29.3872C6.71574 29.8299 6.74962 30.388 6.56331 30.9155L5.4285 34.7152C5.17444 35.6312 5.95356 36.308 6.81737 36.0366L10.2387 35.0205C11.1703 34.7152 11.8986 35.1037 12.7624 35.6312C15.2352 37.0883 18.3178 37.8364 21.0955 37.8364C29.4965 37.8364 38.0329 31.3396 38.0329 20.8736C38.0329 11.8477 30.7498 3.96167 21.1294 3.96167Z" stroke="#D93030" stroke-width="1.15046" stroke-linecap="round" stroke-linejoin="round"/>
</svg>
