<svg width="43" height="43" viewBox="0 0 43 43" fill="none" xmlns="http://www.w3.org/2000/svg">
<path d="M17.7932 32.4214H5.07812" stroke="#D93030" stroke-width="1.15046" stroke-linecap="round" stroke-linejoin="round"/>
<path fill-rule="evenodd" clip-rule="evenodd" d="M37.1299 32.4213C37.1299 35.217 34.8636 37.4834 32.0679 37.4834C29.2722 37.4834 27.0059 35.217 27.0059 32.4213C27.0059 29.6236 29.2722 27.3593 32.0679 27.3593C34.8636 27.3593 37.1299 29.6236 37.1299 32.4213Z" stroke="#D93030" stroke-width="1.15046" stroke-linecap="round" stroke-linejoin="round"/>
<path d="M24.4121 11.8138H37.1292" stroke="#D93030" stroke-width="1.15046" stroke-linecap="round" stroke-linejoin="round"/>
<path fill-rule="evenodd" clip-rule="evenodd" d="M5.07812 11.8139C5.07812 14.6116 7.34446 16.8759 10.1402 16.8759C12.9359 16.8759 15.2022 14.6116 15.2022 11.8139C15.2022 9.01816 12.9359 6.75183 10.1402 6.75183C7.34446 6.75183 5.07812 9.01816 5.07812 11.8139Z" stroke="#D93030" stroke-width="1.15046" stroke-linecap="round" stroke-linejoin="round"/>
</svg>
