<svg width="117" height="83" viewBox="0 0 117 83" fill="none" xmlns="http://www.w3.org/2000/svg">
<path d="M56.5488 41.7627C56.5488 55.6694 54.2613 65.9632 49.6862 72.6442C45.1475 79.3252 38.1397 82.6657 28.6629 82.6657C19.4765 82.6657 12.5413 79.2163 7.85734 72.3174C3.20969 65.4186 0.885857 55.2336 0.885857 41.7627C0.885857 27.7108 3.15522 17.3625 7.69395 10.7178C12.2327 4.03682 19.2223 0.696318 28.6629 0.696318C37.8492 0.696318 44.7844 4.18206 49.4684 11.1535C54.1887 18.125 56.5488 28.3281 56.5488 41.7627ZM17.6065 41.7627C17.6065 51.53 18.4416 58.5378 20.1119 62.7861C21.8185 66.998 24.6688 69.104 28.6629 69.104C32.5843 69.104 35.4165 66.9617 37.1594 62.6772C38.9022 58.3926 39.7737 51.4211 39.7737 41.7627C39.7737 31.9954 38.8841 24.9876 37.1049 20.7393C35.362 16.4548 32.548 14.3125 28.6629 14.3125C24.7051 14.3125 21.8729 16.4548 20.1664 20.7393C18.4598 24.9876 17.6065 31.9954 17.6065 41.7627ZM116.371 65.0736H106.785V81.5764H90.3365V65.0736H56.3505V53.3637L91.2624 1.94901H106.785V52.0021H116.371V65.0736ZM90.3365 52.0021V38.4948C90.3365 36.2436 90.4273 32.9757 90.6088 28.6912C90.7904 24.4066 90.9356 21.9194 91.0446 21.2295H90.6088C89.2654 24.2069 87.6496 27.1117 85.7615 29.9439L71.1649 52.0021H90.3365Z" fill="#C4C4C4"/>
</svg>
