<svg width="45" height="45" viewBox="0 0 45 45" fill="none" xmlns="http://www.w3.org/2000/svg">
<g clip-path="url(#clip0_631_377)">
<path d="M22.3869 44.0649C34.4197 44.0649 44.1743 34.3104 44.1743 22.2776C44.1743 10.2448 34.4197 0.490234 22.3869 0.490234C10.3541 0.490234 0.599609 10.2448 0.599609 22.2776C0.599609 34.3104 10.3541 44.0649 22.3869 44.0649Z" fill="#039BE5"/>
<path d="M10.5688 21.8055L31.5754 13.7061C32.5504 13.3538 33.4019 13.9439 33.086 15.4182L33.0878 15.4164L29.511 32.267C29.2459 33.4617 28.536 33.7522 27.5429 33.1894L22.0961 29.1751L19.4689 31.706C19.1784 31.9965 18.9333 32.2416 18.3704 32.2416L18.7572 26.6986L28.8519 17.5788C29.2913 17.192 28.7539 16.9742 28.1747 17.3591L15.6997 25.2134L10.3218 23.5358C9.15439 23.1654 9.12898 22.3683 10.5688 21.8055Z" fill="white"/>
</g>
<defs>
<clipPath id="clip0_631_377">
<rect width="43.5746" height="43.5746" fill="white" transform="translate(0.599609 0.490234)"/>
</clipPath>
</defs>
</svg>
