<svg width="45" height="45" viewBox="0 0 45 45" fill="none" xmlns="http://www.w3.org/2000/svg">
<g clip-path="url(#clip0_631_380)">
<path d="M22.5477 0.490234H22.5368C10.5238 0.490234 0.754883 10.2618 0.754883 22.2776C0.754883 27.0435 2.29089 31.4609 4.90264 35.0476L2.1874 43.1416L10.5619 40.4645C14.007 42.7467 18.1167 44.0649 22.5477 44.0649C34.5606 44.0649 44.3295 34.2905 44.3295 22.2776C44.3295 10.2646 34.5606 0.490234 22.5477 0.490234Z" fill="#4CAF50"/>
<path d="M35.2252 31.2565C34.6995 32.7408 32.6134 33.9718 30.9494 34.3313C29.811 34.5736 28.324 34.767 23.3184 32.6918C16.9156 30.0392 12.7924 23.5329 12.471 23.1108C12.1633 22.6887 9.88379 19.6657 9.88379 16.5392C9.88379 13.4127 11.4715 11.8903 12.1115 11.2367C12.6372 10.7002 13.5059 10.4551 14.3393 10.4551C14.6089 10.4551 14.8513 10.4687 15.0692 10.4796C15.7092 10.5068 16.0305 10.545 16.4527 11.5553C16.9783 12.8217 18.2583 15.9482 18.4108 16.2696C18.566 16.5909 18.7213 17.0267 18.5034 17.4488C18.2991 17.8846 18.1194 18.0779 17.798 18.4483C17.4767 18.8187 17.1716 19.1019 16.8503 19.4995C16.5562 19.8454 16.2239 20.2158 16.5943 20.8558C16.9647 21.4822 18.2447 23.571 20.1293 25.2487C22.5613 27.4138 24.533 28.1055 25.2384 28.3997C25.764 28.6175 26.3904 28.5658 26.7744 28.1573C27.2619 27.6317 27.8638 26.7602 28.4765 25.9023C28.9123 25.2868 29.4624 25.2105 30.0398 25.4284C30.628 25.6327 33.7409 27.1714 34.3809 27.49C35.0209 27.8114 35.443 27.9639 35.5983 28.2335C35.7508 28.5032 35.7508 29.7695 35.2252 31.2565Z" fill="#FAFAFA"/>
</g>
<defs>
<clipPath id="clip0_631_380">
<rect width="43.5746" height="43.5746" fill="white" transform="translate(0.754883 0.490234)"/>
</clipPath>
</defs>
</svg>
