<svg width="206" height="276" viewBox="0 0 206 276" fill="none" xmlns="http://www.w3.org/2000/svg">
<path d="M148.722 21.2152H128.674C126.172 21.1375 124.023 19.4112 123.398 16.9795C121.498 7.07355 112.692 0.0324544 102.647 0.388529C92.5413 0.21083 83.7782 7.36611 81.8959 17.3328C81.2456 19.6977 79.0624 21.3044 76.62 21.2159H57.2754V56.5159H148.722V21.2152Z" fill="#F6F6F6"/>
<path d="M204.997 259.137V56.8679C205.019 48.8748 198.58 42.3776 190.616 42.356C190.251 42.3553 189.886 42.3682 189.522 42.3945H159.274V60.3976C159.274 63.2219 157.515 67.1049 154.701 67.1049H50.9453C48.1313 67.1049 46.725 63.2219 46.725 60.3976V42.3952H16.4771C8.53465 41.8101 1.62283 47.7985 1.0405 55.7706C1.01357 56.1362 1.00078 56.5024 1.00213 56.8686V259.137C0.805554 267.908 7.73084 275.178 16.4697 275.375C16.4724 275.375 16.4751 275.375 16.4778 275.375H189.522C198.261 275.182 205.19 267.916 204.998 259.145C204.997 259.142 204.997 259.139 204.997 259.137ZM74.5103 212.541L47.0764 238.31C46.1992 239.363 44.9249 240.003 43.5596 240.075C42.09 240.017 40.7012 239.383 39.6907 238.31L25.2706 223.484C23.354 221.33 23.5108 218.032 25.622 216.071C27.6733 214.053 30.9565 214.053 33.0077 216.071L43.5589 227.367L67.4759 204.775C69.8739 203.114 73.1598 203.718 74.8146 206.125C76.165 208.088 76.0398 210.715 74.5103 212.541ZM74.5103 156.061L47.0764 181.83C46.1992 182.883 44.9249 183.523 43.5596 183.595C42.09 183.537 40.7012 182.903 39.6907 181.83L25.2706 167.004C23.354 164.85 23.5108 161.552 25.622 159.591C27.6733 157.573 30.9565 157.573 33.0077 159.591L43.5589 170.887L67.4759 148.295C69.8739 146.634 73.1598 147.238 74.8146 149.645C76.165 151.608 76.0398 154.235 74.5103 156.061ZM74.5103 99.5807L47.0764 125.35C46.1992 126.403 44.9249 127.042 43.5596 127.115C42.09 127.057 40.7012 126.423 39.6907 125.35L25.2706 110.524C23.354 108.37 23.5108 105.072 25.622 103.111C27.6733 101.093 30.9565 101.093 33.0077 103.111L43.5589 114.407L67.4759 91.8146C69.8739 90.1538 73.1598 90.7579 74.8146 93.1646C76.165 95.1281 76.0398 97.755 74.5103 99.5807ZM176.86 233.015H95.9647C93.0511 233.015 90.6888 230.644 90.6888 227.72C90.6888 224.795 93.0511 222.425 95.9647 222.425H176.859C179.773 222.425 182.135 224.795 182.135 227.72C182.135 230.644 179.774 233.015 176.86 233.015ZM176.86 176.535H95.9647C93.0511 176.535 90.6888 174.164 90.6888 171.24C90.6888 168.315 93.0511 165.944 95.9647 165.944H176.859C179.773 165.944 182.135 168.315 182.135 171.24C182.135 174.164 179.774 176.535 176.86 176.535ZM176.86 120.055H95.9647C93.0511 120.055 90.6888 117.684 90.6888 114.759C90.6888 111.835 93.0511 109.464 95.9647 109.464H176.859C179.773 109.464 182.135 111.835 182.135 114.759C182.135 117.684 179.774 120.055 176.86 120.055Z" fill="#F6F6F6"/>
</svg>
