<svg width="205" height="300" viewBox="0 0 205 300" fill="none" xmlns="http://www.w3.org/2000/svg">
<path d="M188.805 220.951C189.667 234.361 178.834 252.276 175.288 271.569C174.746 274.466 168.072 272.209 167.699 275.364C167.325 278.509 172.906 288.658 173.244 291.52C173.582 294.417 164.802 293.395 164.802 293.395L163.442 295.59H159.727L157.345 288.489C157.345 288.489 139.758 286.463 139.074 289.502C138.39 292.542 136.541 290.178 127.237 295.59C117.932 301.002 84.0996 299.313 71.0714 298.327C64.9128 297.82 55.4304 293.359 49.414 292.213C42.7221 290.96 39.7539 293.057 38.5986 293.244C36.3947 293.581 31.2758 290.471 30.1383 287.814C29.0008 285.174 20.8159 267.321 25.4016 265.499C29.9783 263.678 46.037 257.537 46.7124 255.342C47.3967 253.129 42.0023 239.675 38.021 238.724C34.0308 237.755 27.5078 231.375 24.895 229.633C22.3622 227.944 25.3216 224.132 24.7262 220.32C24.0952 216.303 21.2869 213.033 24.0596 212.028C29.4451 210.038 41.2469 205.701 59.0741 199.321C65.286 197.108 76.1636 199.001 81.5668 196.957C87.2455 194.824 87.3166 188.781 88.3386 186.808C91.7157 180.214 88.1698 176.642 90.196 168.857C92.8887 158.549 102.478 150.417 103.242 140.864C103.749 134.608 89.8494 112.534 83.593 110.17C80.6781 109.068 69.9516 109.512 60.5937 108.979C49.885 108.366 40.5004 106.82 38.6075 106.517C35.0439 105.949 16.1858 93.2674 16.1858 93.2674C16.1858 93.2674 16.8701 99.177 14.4973 101.043C12.1245 102.901 12.8977 93.6495 11.2092 95.9245C9.52066 98.1817 9.51177 98.004 8.32092 99.7902C7.13896 101.559 10.0183 108.917 8.74749 110.108C7.47666 111.281 6.95234 107.353 6.95234 107.353C6.95234 107.353 6.21473 110.694 5.19273 109.254C4.17962 107.815 3.42423 100.919 3.42423 100.919C3.42423 100.919 1.72684 107.051 0.802599 105.353C-0.130526 103.683 1.91346 99.2659 1.91346 99.2659C1.91346 99.2659 9.85836 84.4874 14.2485 84.3896C18.6564 84.283 38.4475 95.96 53.6708 96.2977C68.903 96.6443 68.2187 93.2585 85.637 92.5742C82.4288 89.7038 82.42 86.6291 82.5888 83.4388C82.7665 80.2485 77.3544 77.4581 77.1856 67.1762C77.0167 56.8944 91.8134 53.5885 97.1011 53.633C102.389 53.6774 106.201 56.1657 107.632 58.9383C109.667 62.8129 112.538 63.3194 114.91 63.8348C116.643 64.1992 113.56 67.2118 113.56 67.2118L117.95 73.8056C117.95 73.8056 119.221 76.2584 116.341 77.538C113.471 78.7999 108.796 79.7064 107.748 80.0174C106.69 80.3284 106.104 83.2877 108.032 85.4827C109.285 86.9223 114.733 94.3605 117.443 90.8947C118.323 89.7749 119.985 85.8648 121.798 80.8883C123.051 77.5114 125.806 74.0811 126.988 70.251C129.423 62.4752 129.885 54.5039 129.627 51.909C129.245 48.3721 124.126 30.7054 118.11 21.7121C116.075 18.6729 106.815 18.5218 106.05 18.5574C104.077 18.6374 98.3009 19.135 98.0609 17.18C97.821 15.1982 105.499 15.6337 106.468 15.0294C107.437 14.4251 103.909 10.0262 103.909 10.0262C103.909 10.0262 99.6339 10.7905 99.1896 9.57299C98.7541 8.3644 102.487 7.34244 102.487 7.34244C102.487 7.34244 97.7321 2.60586 98.1587 0.659683C98.5852 -1.29538 105.135 7.44019 107.801 8.10669C111.267 8.95981 118.359 9.46635 122.082 13.8563C132.124 25.72 141.678 45.8216 142.051 49.8028C142.344 53.0553 141.118 63.2394 139.927 74.6676C138.701 86.5935 133.68 94.3071 133.84 99.8702C133.911 102.421 135.688 104.278 137.732 107.993C140.603 113.236 134.684 116.284 134.186 141.335C133.973 152.177 136.906 168.99 136.906 168.99C136.906 168.99 142.647 160.273 148.228 160.433C153.808 160.61 155.159 157.571 163.788 151.813C172.427 146.054 169.876 138.003 172.249 133.373C174.613 128.743 180.54 115.431 185.099 118.141C189.676 120.843 202.527 136.759 204.215 155.021C205.904 173.301 196.963 172.43 197.799 182.498C198.625 192.576 187.97 207.523 188.805 220.951Z" fill="#F6F6F6"/>
</svg>
