<svg width="267" height="284" viewBox="0 0 267 284" fill="none" xmlns="http://www.w3.org/2000/svg">
<path d="M265.004 45.5373C257.204 32.0572 245.992 20.7516 232.584 12.843C218.756 4.68633 202.919 0.375 186.784 0.375C170.649 0.375 154.81 4.68633 140.983 12.843C127.574 20.7521 116.363 32.0577 108.562 45.5373C106.97 48.2893 107.091 51.7085 108.874 54.3407L144.532 106.974C144.738 106.959 144.945 106.942 145.156 106.942H170.84L165.597 91.213C164.149 86.8691 166.497 82.1736 170.841 80.7254C175.185 79.2784 179.88 81.6258 181.328 85.9692L186.784 102.336L192.239 85.9692C193.687 81.6253 198.382 79.2773 202.727 80.7254C207.071 82.1736 209.418 86.8685 207.971 91.213L202.728 106.942H228.412C228.623 106.942 228.829 106.958 229.036 106.974L264.693 54.3407C266.476 51.7085 266.597 48.2893 265.004 45.5373Z" fill="#F6F6F6"/>
<path d="M151.852 266.204C151.852 275.672 159.554 283.375 169.023 283.375H204.546C214.014 283.375 221.717 275.672 221.717 266.204V123.524H151.852V266.204Z" fill="#F6F6F6"/>
<path d="M9.76172 105.763H88.5081V186.868H9.76172V105.763Z" fill="#F6F6F6"/>
<path d="M0.880859 266.204C0.880859 275.672 8.58377 283.375 18.0521 283.375H80.217C89.6854 283.375 97.3883 275.672 97.3883 266.204V203.45H0.880859V266.204Z" fill="#F6F6F6"/>
<path d="M79.628 17.5462C79.628 9.30055 73.7441 3.08284 65.9423 3.08284C63.9696 3.08284 61.9742 3.48081 60.0125 4.26625L32.1 15.4309C24.428 18.4997 18.6426 27.045 18.6426 35.3078V89.1812H79.628V17.5462Z" fill="#F6F6F6"/>
</svg>
