<svg width="100" height="83" viewBox="0 0 100 83" fill="none" xmlns="http://www.w3.org/2000/svg">
<path d="M55.6933 41.1863C55.6933 55.093 53.4058 65.3868 48.8308 72.0678C44.292 78.7488 37.2843 82.0893 27.8074 82.0893C18.621 82.0893 11.6858 78.6399 7.00187 71.741C2.35422 64.8421 0.0303887 54.6572 0.0303887 41.1863C0.0303887 27.1344 2.29975 16.7861 6.83848 10.1414C11.3772 3.4604 18.3668 0.119902 27.8074 0.119902C36.9938 0.119902 43.9289 3.60564 48.6129 10.5771C53.3332 17.5486 55.6933 27.7517 55.6933 41.1863ZM16.7511 41.1863C16.7511 50.9536 17.5862 57.9614 19.2564 62.2097C20.963 66.4216 23.8133 68.5276 27.8074 68.5276C31.7289 68.5276 34.561 66.3853 36.3039 62.1007C38.0468 57.8162 38.9182 50.8447 38.9182 41.1863C38.9182 31.419 38.0286 24.4112 36.2494 20.1629C34.5066 15.8784 31.6925 13.7361 27.8074 13.7361C23.8496 13.7361 21.0175 15.8784 19.3109 20.1629C17.6043 24.4112 16.7511 31.419 16.7511 41.1863ZM99.666 81H82.8364V34.9229L82.9998 27.3523L83.2721 19.0736C80.4762 21.8695 78.5336 23.7031 77.4444 24.5746L68.2943 31.9273L60.179 21.7969L85.8319 1.37259H99.666V81Z" fill="#C4C4C4"/>
</svg>
