<svg width="114" height="83" viewBox="0 0 114 83" fill="none" xmlns="http://www.w3.org/2000/svg">
<path d="M55.8047 41.7622C55.8047 55.6689 53.5171 65.9627 48.9421 72.6437C44.4034 79.3247 37.3956 82.6652 27.9187 82.6652C18.7323 82.6652 11.7972 79.2158 7.1132 72.3169C2.46554 65.4181 0.141717 55.2332 0.141717 41.7622C0.141717 27.7103 2.41108 17.362 6.94981 10.7173C11.4885 4.03633 18.4782 0.695829 27.9187 0.695829C37.1051 0.695829 44.0403 4.18157 48.7242 11.1531C53.4445 18.1245 55.8047 28.3276 55.8047 41.7622ZM16.8624 41.7622C16.8624 51.5296 17.6975 58.5374 19.3678 62.7856C21.0743 66.9975 23.9246 69.1035 27.9187 69.1035C31.8402 69.1035 34.6723 66.9612 36.4152 62.6767C38.1581 58.3921 39.0295 51.4206 39.0295 41.7622C39.0295 31.9949 38.1399 24.9871 36.3608 20.7388C34.6179 16.4543 31.8039 14.312 27.9187 14.312C23.961 14.312 21.1288 16.4543 19.4222 20.7388C17.7157 24.9871 16.8624 31.9949 16.8624 41.7622ZM113.829 81.5759H58.1662V69.866L78.1548 49.6596C84.0733 43.5959 87.9403 39.4021 89.7558 37.0783C91.5713 34.7181 92.8784 32.5395 93.6772 30.5425C94.476 28.5455 94.8755 26.4758 94.8755 24.3335C94.8755 21.1383 93.9859 18.76 92.2067 17.1986C90.4638 15.6373 88.1218 14.8567 85.1807 14.8567C82.0944 14.8567 79.0988 15.5647 76.1941 16.9808C73.2893 18.3969 70.2574 20.4121 67.0985 23.0264L57.9484 12.1879C61.8698 8.84738 65.1196 6.48724 67.6976 5.10747C70.2756 3.7277 73.0896 2.67471 76.1396 1.94852C79.1896 1.18601 82.6027 0.804759 86.379 0.804759C91.3534 0.804759 95.7469 1.7125 99.5594 3.52799C103.372 5.34348 106.331 7.88517 108.437 11.1531C110.543 14.4209 111.596 18.1608 111.596 22.3728C111.596 26.0401 110.943 29.4895 109.635 32.7211C108.365 35.9163 106.368 39.2024 103.644 42.5792C100.957 45.956 96.2008 50.7671 89.3745 57.0123L79.1352 66.6526V67.4151H113.829V81.5759Z" fill="#C4C4C4"/>
</svg>
