<svg width="113" height="83" viewBox="0 0 113 83" fill="none" xmlns="http://www.w3.org/2000/svg">
<path d="M55.6933 41.1863C55.6933 55.093 53.4058 65.3868 48.8308 72.0678C44.292 78.7488 37.2843 82.0893 27.8074 82.0893C18.621 82.0893 11.6858 78.6399 7.00187 71.741C2.35422 64.8421 0.0303887 54.6572 0.0303887 41.1863C0.0303887 27.1344 2.29975 16.7861 6.83848 10.1414C11.3772 3.4604 18.3668 0.119902 27.8074 0.119902C36.9938 0.119902 43.9289 3.60564 48.6129 10.5771C53.3332 17.5486 55.6933 27.7517 55.6933 41.1863ZM16.7511 41.1863C16.7511 50.9536 17.5862 57.9614 19.2564 62.2097C20.963 66.4216 23.8133 68.5276 27.8074 68.5276C31.7289 68.5276 34.561 66.3853 36.3039 62.1007C38.0468 57.8162 38.9182 50.8447 38.9182 41.1863C38.9182 31.419 38.0286 24.4112 36.2494 20.1629C34.5066 15.8784 31.6925 13.7361 27.8074 13.7361C23.8496 13.7361 21.0175 15.8784 19.3109 20.1629C17.6043 24.4112 16.7511 31.419 16.7511 41.1863ZM110.613 19.1826C110.613 24.157 109.107 28.3871 106.093 31.8728C103.079 35.3586 98.849 37.755 93.4025 39.0622V39.389C99.8293 40.1878 104.695 42.1485 107.999 45.2711C111.303 48.3575 112.955 52.5331 112.955 57.798C112.955 65.4594 110.178 71.4324 104.622 75.7169C99.0668 79.9652 91.1331 82.0893 80.8212 82.0893C72.1794 82.0893 64.5181 80.6551 57.8371 77.7866V63.4624C60.9234 65.0237 64.3184 66.2945 68.022 67.2749C71.7256 68.2553 75.3928 68.7454 79.0238 68.7454C84.5792 68.7454 88.6822 67.8014 91.3329 65.9133C93.9835 64.0252 95.3088 60.9933 95.3088 56.8177C95.3088 53.0778 93.7838 50.4271 90.7337 48.8658C87.6837 47.3045 82.8182 46.5238 76.1372 46.5238H70.0916V33.6157H76.2461C82.4188 33.6157 86.9212 32.8169 89.7534 31.2193C92.6219 29.5853 94.0561 26.8076 94.0561 22.8862C94.0561 16.8587 90.2799 13.845 82.7274 13.845C80.1131 13.845 77.4444 14.2807 74.7211 15.1522C72.0342 16.0236 69.0386 17.5305 65.7344 19.6727L57.946 8.07175C65.2079 2.84314 73.8678 0.228831 83.9257 0.228831C92.168 0.228831 98.6674 1.89908 103.424 5.23958C108.217 8.58009 110.613 13.2277 110.613 19.1826Z" fill="#C4C4C4"/>
</svg>
