<svg width="30" height="30" viewBox="0 0 30 30" fill="none" xmlns="http://www.w3.org/2000/svg">
<path fill-rule="evenodd" clip-rule="evenodd" d="M25.2724 9.42977L24.517 8.13061C23.8779 7.03132 22.4617 6.65209 21.351 7.28285V7.28285C20.8223 7.59152 20.1915 7.6791 19.5976 7.52626C19.0036 7.37342 18.4955 6.99272 18.1851 6.46811C17.9854 6.13466 17.8781 5.75486 17.874 5.36713V5.36713C17.892 4.74548 17.6554 4.14308 17.218 3.69715C16.7807 3.25122 16.1798 2.99974 15.5523 3H14.0305C13.4157 2.99999 12.8263 3.24278 12.3927 3.67463C11.959 4.10648 11.7169 4.6918 11.7199 5.30107V5.30107C11.7016 6.55899 10.6675 7.56923 9.39816 7.5691C9.00695 7.56508 8.62374 7.45873 8.2873 7.26083V7.26083C7.17664 6.63007 5.76041 7.0093 5.12135 8.10859L4.31042 9.42977C3.67214 10.5277 4.04956 11.9304 5.15468 12.5676V12.5676C5.87302 12.9786 6.31554 13.7383 6.31554 14.5604C6.31554 15.3825 5.87302 16.1421 5.15468 16.5532V16.5532C4.05096 17.186 3.67313 18.5854 4.31042 19.68V19.68L5.07691 20.9902C5.37634 21.5256 5.87872 21.9208 6.4729 22.0881C7.06707 22.2555 7.70405 22.1813 8.24287 21.882V21.882C8.77256 21.5756 9.40377 21.4917 9.9962 21.6488C10.5886 21.806 11.0932 22.1911 11.3977 22.7187C11.5974 23.0522 11.7047 23.432 11.7088 23.8197V23.8197C11.7088 25.0905 12.7482 26.1208 14.0305 26.1208H15.5523C16.8302 26.1208 17.8679 25.0972 17.874 23.8307V23.8307C17.8711 23.2195 18.1147 22.6325 18.5508 22.2004C18.9868 21.7682 19.5791 21.5267 20.1957 21.5296C20.586 21.54 20.9676 21.6459 21.3066 21.8379V21.8379C22.4144 22.4705 23.8297 22.0965 24.4725 21.0012V21.0012L25.2724 19.68C25.582 19.1533 25.6669 18.5261 25.5085 17.9371C25.35 17.3482 24.9612 16.8461 24.4281 16.5422V16.5422C23.895 16.2382 23.5062 15.7362 23.3478 15.1472C23.1893 14.5583 23.2743 13.931 23.5839 13.4043C23.7852 13.056 24.0766 12.7671 24.4281 12.5676V12.5676C25.5266 11.9308 25.9031 10.5362 25.2724 9.44078V9.44078V9.42977Z" stroke="#C63B3B" stroke-width="1.21362" stroke-linecap="round" stroke-linejoin="round"/>
<ellipse cx="14.7969" cy="14.5604" rx="3.19928" ry="3.17085" stroke="#C63B3B" stroke-width="1.21362" stroke-linecap="round" stroke-linejoin="round"/>
</svg>
