<svg width="30" height="30" viewBox="0 0 30 30" fill="none" xmlns="http://www.w3.org/2000/svg">
<path d="M21.9932 13.6651C23.9961 13.6651 25.6209 12.0415 25.6209 10.0385C25.6209 8.03563 23.9961 6.41199 21.9932 6.41199" stroke="#C63B3B" stroke-width="1.21362" stroke-linecap="round" stroke-linejoin="round"/>
<path d="M23.6611 17.6061C24.2593 17.6473 24.8539 17.7321 25.4395 17.8639C26.253 18.0232 27.2315 18.3566 27.5799 19.0865C27.8022 19.554 27.8022 20.0983 27.5799 20.5669C27.2327 21.2968 26.253 21.6291 25.4395 21.7964" stroke="#C63B3B" stroke-width="1.21362" stroke-linecap="round" stroke-linejoin="round"/>
<path d="M7.86208 13.6651C5.85917 13.6651 4.23438 12.0415 4.23438 10.0385C4.23438 8.03563 5.85917 6.41199 7.86208 6.41199" stroke="#C63B3B" stroke-width="1.21362" stroke-linecap="round" stroke-linejoin="round"/>
<path d="M6.19456 17.6061C5.59643 17.6473 5.00174 17.7321 4.41622 17.8639C3.60268 18.0232 2.62414 18.3566 2.27695 19.0865C2.05352 19.554 2.05352 20.0983 2.27695 20.5669C2.62299 21.2968 3.60268 21.6291 4.41622 21.7964" stroke="#C63B3B" stroke-width="1.21362" stroke-linecap="round" stroke-linejoin="round"/>
<path fill-rule="evenodd" clip-rule="evenodd" d="M14.9223 18.387C18.9809 18.387 22.4481 19.0011 22.4481 21.4589C22.4481 23.9156 19.0038 24.5527 14.9223 24.5527C10.8626 24.5527 7.39648 23.9385 7.39648 21.4807C7.39648 19.0229 10.8409 18.387 14.9223 18.387Z" stroke="#C63B3B" stroke-width="1.21362" stroke-linecap="round" stroke-linejoin="round"/>
<path fill-rule="evenodd" clip-rule="evenodd" d="M14.9224 14.8813C12.2458 14.8813 10.0996 12.7351 10.0996 10.0573C10.0996 7.38064 12.2458 5.2345 14.9224 5.2345C17.5991 5.2345 19.7452 7.38064 19.7452 10.0573C19.7452 12.7351 17.5991 14.8813 14.9224 14.8813Z" stroke="#C63B3B" stroke-width="1.21362" stroke-linecap="round" stroke-linejoin="round"/>
</svg>
