<svg width="43" height="43" viewBox="0 0 43 43" fill="none" xmlns="http://www.w3.org/2000/svg">
<path fill-rule="evenodd" clip-rule="evenodd" d="M36.5719 14.2067L35.4779 12.3083C34.5524 10.702 32.5013 10.1478 30.8927 11.0695V11.0695C30.127 11.5206 29.2134 11.6485 28.3532 11.4252C27.4931 11.2019 26.7571 10.6456 26.3076 9.87898C26.0184 9.39172 25.863 8.83673 25.8571 8.27015V8.27015C25.8832 7.36176 25.5405 6.4815 24.907 5.82988C24.2736 5.17826 23.4034 4.81078 22.4946 4.81116H20.2905C19.4002 4.81115 18.5466 5.16592 17.9186 5.79697C17.2905 6.42802 16.9399 7.28332 16.9442 8.17362V8.17362C16.9178 10.0118 15.42 11.488 13.5817 11.4878C13.0151 11.4819 12.4601 11.3265 11.9729 11.0373V11.0373C10.3643 10.1156 8.31323 10.6698 7.38769 12.2761L6.21325 14.2067C5.28884 15.8111 5.83545 17.8609 7.43596 18.7919V18.7919C8.47632 19.3925 9.11721 20.5026 9.11721 21.7039C9.11721 22.9052 8.47632 24.0152 7.43596 24.6159V24.6159C5.83748 25.5406 5.29027 27.5855 6.21325 29.185V29.185L7.32334 31.0995C7.75699 31.8819 8.48458 32.4594 9.34511 32.7039C10.2056 32.9485 11.1281 32.8401 11.9085 32.4026V32.4026C12.6757 31.955 13.5898 31.8323 14.4478 32.062C15.3058 32.2916 16.0366 32.8544 16.4776 33.6253C16.7668 34.1126 16.9222 34.6676 16.9281 35.2342V35.2342C16.9281 37.0912 18.4335 38.5966 20.2905 38.5966H22.4946C24.3454 38.5966 25.8482 37.101 25.8571 35.2503V35.2503C25.8528 34.3572 26.2057 33.4994 26.8372 32.8679C27.4687 32.2364 28.3265 31.8835 29.2195 31.8878C29.7848 31.9029 30.3375 32.0577 30.8284 32.3383V32.3383C32.4327 33.2627 34.4825 32.7161 35.4135 31.1156V31.1156L36.5719 29.185C37.0203 28.4154 37.1433 27.4988 36.9138 26.6382C36.6843 25.7776 36.1212 25.0439 35.3492 24.5998V24.5998C34.5772 24.1556 34.014 23.422 33.7845 22.5614C33.555 21.7008 33.6781 20.7842 34.1265 20.0146C34.4181 19.5056 34.8401 19.0835 35.3492 18.7919V18.7919C36.9401 17.8614 37.4854 15.8236 36.5719 14.2228V14.2228V14.2067Z" stroke="#D93030" stroke-width="1.15046" stroke-linecap="round" stroke-linejoin="round"/>
<circle cx="21.401" cy="21.7039" r="4.63344" stroke="#D93030" stroke-width="1.15046" stroke-linecap="round" stroke-linejoin="round"/>
</svg>
