<svg width="51" height="50" viewBox="0 0 51 50" fill="none" xmlns="http://www.w3.org/2000/svg">
<path fill-rule="evenodd" clip-rule="evenodd" d="M0.291992 25C0.291992 11.1929 11.4849 0 25.292 0C39.0991 0 50.292 11.1929 50.292 25C50.292 38.8071 39.0991 50 25.292 50C11.4849 50 0.291992 38.8071 0.291992 25Z" fill="#C63B3B"/>
<path fill-rule="evenodd" clip-rule="evenodd" d="M25.2926 11.6665C21.6714 11.6665 21.217 11.6823 19.7948 11.7471C18.3753 11.8121 17.4064 12.0368 16.5586 12.3665C15.6817 12.7071 14.9378 13.1626 14.1966 13.904C13.455 14.6451 12.9994 15.389 12.6577 16.2657C12.3272 17.1138 12.1022 18.083 12.0383 19.5019C11.9747 20.9241 11.958 21.3788 11.958 25C11.958 28.6211 11.9741 29.0742 12.0386 30.4964C12.1038 31.9159 12.3286 32.8848 12.658 33.7326C12.9989 34.6095 13.4544 35.3534 14.1958 36.0945C14.9367 36.8362 15.6805 37.2929 16.5569 37.6334C17.4053 37.9632 18.3745 38.1879 19.7936 38.2529C21.2159 38.3176 21.6701 38.3334 25.2909 38.3334C28.9124 38.3334 29.3654 38.3176 30.7876 38.2529C32.2071 38.1879 33.1771 37.9632 34.0255 37.6334C34.9021 37.2929 35.6449 36.8362 36.3858 36.0945C37.1274 35.3534 37.583 34.6095 37.9247 33.7328C38.2524 32.8848 38.4775 31.9156 38.5441 30.4967C38.608 29.0745 38.6247 28.6211 38.6247 25C38.6247 21.3788 38.608 20.9244 38.5441 19.5021C38.4775 18.0827 38.2524 17.1138 37.9247 16.266C37.583 15.389 37.1274 14.6451 36.3858 13.904C35.6441 13.1624 34.9024 12.7068 34.0246 12.3665C33.1746 12.0368 32.2052 11.8121 30.7857 11.7471C29.3635 11.6823 28.9107 11.6665 25.2884 11.6665H25.2926ZM24.0964 14.0693C24.4514 14.0687 24.8475 14.0693 25.2925 14.0693C28.8526 14.0693 29.2745 14.082 30.6804 14.1459C31.9804 14.2054 32.6859 14.4226 33.1559 14.6051C33.7782 14.8468 34.2218 15.1357 34.6882 15.6023C35.1549 16.069 35.4438 16.5135 35.686 17.1357C35.8685 17.6051 36.086 18.3107 36.1451 19.6107C36.209 21.0163 36.2229 21.4385 36.2229 24.9969C36.2229 28.5553 36.209 28.9775 36.1451 30.383C36.0857 31.6831 35.8685 32.3886 35.686 32.8581C35.4443 33.4803 35.1549 33.9234 34.6882 34.3898C34.2215 34.8564 33.7785 35.1453 33.1559 35.387C32.6865 35.5703 31.9804 35.787 30.6804 35.8464C29.2748 35.9103 28.8526 35.9242 25.2925 35.9242C21.7322 35.9242 21.3103 35.9103 19.9047 35.8464C18.6047 35.7864 17.8991 35.5692 17.4288 35.3867C16.8066 35.145 16.3622 34.8562 15.8955 34.3895C15.4288 33.9228 15.1399 33.4795 14.8977 32.857C14.7152 32.3875 14.4977 31.682 14.4385 30.3819C14.3746 28.9764 14.3619 28.5541 14.3619 24.9935C14.3619 21.433 14.3746 21.013 14.4385 19.6074C14.498 18.3074 14.7152 17.6018 14.8977 17.1318C15.1394 16.5096 15.4288 16.0651 15.8955 15.5985C16.3622 15.1318 16.8066 14.8429 17.4288 14.6007C17.8988 14.4173 18.6047 14.2007 19.9047 14.1409C21.1347 14.0854 21.6114 14.0687 24.0964 14.0659V14.0693ZM32.4098 16.2832C31.5265 16.2832 30.8098 16.999 30.8098 17.8826C30.8098 18.766 31.5265 19.4827 32.4098 19.4827C33.2932 19.4827 34.0099 18.766 34.0099 17.8826C34.0099 16.9993 33.2932 16.2832 32.4098 16.2832ZM25.2926 18.1526C21.5112 18.1526 18.4453 21.2185 18.4453 24.9999C18.4453 28.7814 21.5112 31.8458 25.2926 31.8458C29.074 31.8458 32.1388 28.7814 32.1388 24.9999C32.1388 21.2185 29.074 18.1526 25.2926 18.1526ZM25.2926 20.5554C27.747 20.5554 29.7371 22.5452 29.7371 24.9999C29.7371 27.4544 27.747 29.4444 25.2926 29.4444C22.8378 29.4444 20.8481 27.4544 20.8481 24.9999C20.8481 22.5452 22.8378 20.5554 25.2926 20.5554Z" fill="white"/>
</svg>
