<svg width="51" height="51" viewBox="0 0 51 51" fill="none" xmlns="http://www.w3.org/2000/svg">
<path fill-rule="evenodd" clip-rule="evenodd" d="M0.291992 25.8242C0.291992 12.0171 11.4849 0.824219 25.292 0.824219C39.0991 0.824219 50.292 12.0171 50.292 25.8242C50.292 39.6313 39.0991 50.8242 25.292 50.8242C11.4849 50.8242 0.291992 39.6313 0.291992 25.8242Z" fill="#C63B3B"/>
<path fill-rule="evenodd" clip-rule="evenodd" d="M35.7107 17.2297C36.8581 17.5445 37.7617 18.4723 38.0684 19.6504C38.6257 21.7856 38.6257 26.2408 38.6257 26.2408C38.6257 26.2408 38.6257 30.6958 38.0684 32.8312C37.7617 34.0093 36.8581 34.9371 35.7107 35.2521C33.6313 35.8241 25.2923 35.8241 25.2923 35.8241C25.2923 35.8241 16.9534 35.8241 14.8738 35.2521C13.7264 34.9371 12.8228 34.0093 12.5161 32.8312C11.959 30.6958 11.959 26.2408 11.959 26.2408C11.959 26.2408 11.959 21.7856 12.5161 19.6504C12.8228 18.4723 13.7264 17.5445 14.8738 17.2297C16.9534 16.6575 25.2923 16.6575 25.2923 16.6575C25.2923 16.6575 33.6313 16.6575 35.7107 17.2297ZM22.7923 22.4907V30.8241L29.459 26.6575L22.7923 22.4907Z" fill="white"/>
</svg>
